<svg width="98" height="40" viewBox="0 0 98 40" fill="none" xmlns="http://www.w3.org/2000/svg">
<g clip-path="url(#clip0_1332_5112)">
<path d="M62.2388 12.8445C62.2594 13.1424 62.2594 13.4402 62.2594 13.7408C62.2594 22.8998 55.2948 33.463 42.5599 33.463V33.4575C38.798 33.463 35.1142 32.3841 31.9473 30.35C32.4943 30.4159 33.044 30.4488 33.5952 30.4502C36.7127 30.453 39.7412 29.4057 42.1939 27.4773C39.2312 27.421 36.6332 25.4871 35.7257 22.6638C36.7635 22.8641 37.8328 22.823 38.8515 22.5443C35.6215 21.891 33.2977 19.0498 33.2977 15.7502V15.6624C34.2601 16.199 35.3377 16.4969 36.4399 16.5298C33.3977 14.4943 32.46 10.4426 34.2971 7.27473C37.8123 11.6051 42.9986 14.2377 48.5661 14.5163C48.0082 12.1088 48.7704 9.5861 50.5691 7.89375C53.3577 5.26944 57.7434 5.40395 60.3647 8.19434C61.9152 7.88826 63.4014 7.31865 64.7614 6.51159C64.2445 8.1161 63.1628 9.47905 61.7178 10.3451C63.0902 10.1832 64.431 9.81532 65.6936 9.25395C64.7641 10.6485 63.5933 11.8632 62.2388 12.8445Z" fill="white"/>
</g>
<defs>
<clipPath id="clip0_1332_5112">
<rect width="34" height="28" fill="white" transform="translate(31.8105 5.80469)"/>
</clipPath>
</defs>
</svg>
