<svg width="98" height="40" viewBox="0 0 98 40" fill="none" xmlns="http://www.w3.org/2000/svg">
<path fill-rule="evenodd" clip-rule="evenodd" d="M35.1505 4.85588C34.7478 4.64654 34.222 4.65842 33.2936 4.65842H32.4652V7.08629H34.121C34.6133 7.08629 35.1729 7.12093 35.5418 6.66762C35.6429 6.55182 35.7882 6.34249 35.7882 5.94757C35.7882 5.71498 35.721 5.15775 35.1505 4.85588ZM35.2177 1.90542C34.8374 1.41747 34.1434 1.46399 33.6177 1.46399H32.4652V3.50783H32.9799C33.3717 3.50783 33.763 3.50783 34.1663 3.48457C34.5352 3.46181 34.8931 3.41529 35.1615 3.11342C35.2511 3.02038 35.4079 2.82292 35.4079 2.47453C35.4079 2.38149 35.3855 2.12564 35.2177 1.90542ZM36.2582 8.03892C35.5647 8.44522 34.8598 8.41057 34.0986 8.41057H31V0.208984H33.8302C34.222 0.208984 34.6248 0.208984 35.0161 0.244121C35.2625 0.26738 35.9112 0.336663 36.426 0.906266C36.5938 1.09234 36.9293 1.53327 36.9293 2.21868C36.9293 2.45127 36.8735 3.26435 36.2134 3.69391C36.0232 3.82158 35.8445 3.8686 35.6205 3.91512C35.721 3.93837 35.967 3.9844 36.2244 4.13583C36.6276 4.35605 37.2987 4.9024 37.2987 6.08713C37.2987 6.91159 36.9631 7.62026 36.2582 8.03892Z" fill="white"/>
<path fill-rule="evenodd" clip-rule="evenodd" d="M41.4043 1.68421L40.3081 5.45963H42.4896L41.4043 1.68421ZM43.3399 8.41008L42.8809 6.80718H39.9163L39.4578 8.41008H37.8691L40.5426 0.208984H42.2208L44.9176 8.41008H43.3399Z" fill="white"/>
<mask id="mask0_13_930" style="mask-type:alpha" maskUnits="userSpaceOnUse" x="45" y="0" width="8" height="9">
<path d="M45.4434 0H52.548V8.61877H45.4434V0Z" fill="white"/>
</mask>
<g mask="url(#mask0_13_930)">
<path fill-rule="evenodd" clip-rule="evenodd" d="M51.9551 7.22472C51.5857 7.71267 50.7244 8.61829 49.1354 8.61829C48.867 8.61829 48.2293 8.59602 47.5467 8.2699C46.6521 7.82896 45.4434 6.71401 45.4434 4.28614C45.4434 3.84422 45.4434 2.67136 46.1707 1.59055C46.5511 1.02193 47.4576 -0.000976562 49.1916 -0.000976562C50.702 -0.000976562 51.4966 0.777959 51.8545 1.30055C52.1119 1.69546 52.2683 2.10175 52.4027 2.5318L50.937 2.92671C50.9256 2.8223 50.8813 2.55506 50.7354 2.27645C50.4337 1.69546 49.8403 1.39359 49.214 1.40497C48.7664 1.40497 48.4533 1.54403 48.2965 1.62618C47.715 1.92756 47.0434 2.71788 47.0434 4.251C47.0434 4.4836 47.0549 5.45949 47.5134 6.19092C47.6702 6.4349 47.8604 6.64373 48.0839 6.79517C48.5539 7.13218 49.0238 7.16682 49.2364 7.16682C49.8517 7.16682 50.3103 6.91097 50.6911 6.42351C50.8474 6.22556 50.9704 5.98159 51.0042 5.92369C51.049 5.81927 51.0824 5.72673 51.1496 5.51739L52.548 6.12164C52.3803 6.53931 52.2235 6.86445 51.9551 7.22472Z" fill="white"/>
</g>
<path fill-rule="evenodd" clip-rule="evenodd" d="M58.478 8.41008L56.3741 4.55351L55.0877 6.08713V8.41008H53.6221V0.208984H55.0877V3.97252L58.254 0.208984H59.988L57.4037 3.29899L60.1672 8.41008H58.478Z" fill="white"/>
<path fill-rule="evenodd" clip-rule="evenodd" d="M59.5596 14.096C59.6716 13.9565 59.8727 13.6774 59.9847 13.2364C60.0853 12.8415 60.0744 12.6322 60.0744 11.9121V11.0986H54.8381V11.5053C54.8381 12.3303 54.8495 12.8183 54.9053 13.1899C54.9391 13.3987 55.0282 13.9797 55.5206 14.3974C56.1474 14.9091 57.2994 14.8858 57.4004 14.8858C58.5753 14.8858 59.2016 14.5142 59.5596 14.096ZM53.7194 14.1886C53.5068 13.4804 53.5068 12.9108 53.5068 12.1794V9.56543H61.4056V12.5045C61.4056 12.8762 61.3832 13.329 61.316 13.6892C61.2378 14.096 60.9804 14.9784 60.1301 15.6643C59.6716 16.0241 58.7874 16.512 57.389 16.512C55.8228 16.512 54.2451 15.8845 53.7194 14.1886Z" fill="white"/>
<path fill-rule="evenodd" clip-rule="evenodd" d="M59.8951 21.6636C60.0629 21.3964 60.1301 21.0826 60.1301 20.4324V19.1892H57.6688V19.7356C57.6688 20.6298 57.6688 21.1875 57.859 21.5592C57.9819 21.7918 58.2732 22.1748 58.9109 22.1748C59.112 22.1748 59.582 22.1516 59.8951 21.6636ZM53.5068 22.1867L56.4381 20.5719V19.1892H53.5068V17.668H61.4056V21.0247C61.4056 21.3964 61.3722 22.4999 60.4433 23.2319C59.8394 23.7084 59.1568 23.7317 58.8995 23.7317C58.7765 23.7317 58.3847 23.7198 58.0158 23.5803C57.6912 23.4526 57.0087 23.0577 56.7289 22.1169L53.5068 23.9405V22.1867Z" fill="white"/>
<path fill-rule="evenodd" clip-rule="evenodd" d="M59.213 30.6202C59.8841 30.1906 60.2535 29.5399 60.2535 28.7149C60.2535 28.2037 60.0967 27.8321 60.0186 27.6697C59.7164 27.0888 58.9781 26.3687 57.5015 26.3687C57.1988 26.3687 55.7446 26.3806 55.0173 27.5302C54.7041 28.03 54.6817 28.5288 54.6817 28.7382C54.6817 28.901 54.6931 29.2726 54.8719 29.6794C55.1407 30.2832 55.8118 31.073 57.2998 31.1077C57.949 31.1195 58.6425 30.9918 59.213 30.6202ZM54.4358 31.5149C54.2456 31.3289 53.7866 30.8528 53.5297 30.1204C53.4401 29.8655 53.3057 29.3889 53.3057 28.6922C53.3057 27.5302 53.6751 26.6473 54.5254 25.8808C55.3642 25.1142 56.349 24.7891 57.4452 24.7891C57.7026 24.7891 58.307 24.8004 58.9781 25.0325C60.5552 25.567 61.6072 26.973 61.6072 28.7268C61.6072 30.3064 60.7793 31.2477 60.3541 31.6307C59.8841 32.0603 58.9666 32.6645 57.4562 32.6527C56.9643 32.6527 55.5659 32.5948 54.4358 31.5149Z" fill="white"/>
<path fill-rule="evenodd" clip-rule="evenodd" d="M59.5596 38.2345C60.1416 37.8861 60.1416 37.2007 60.1416 36.6083V35.435H57.4004V36.5386C57.4004 36.643 57.4114 36.7593 57.4114 36.8632C57.4448 37.6535 57.6802 38.0019 57.9934 38.1999C58.1278 38.281 58.4185 38.4201 58.8213 38.4201C59.0672 38.4201 59.336 38.3622 59.5596 38.2345ZM56.6397 38.908C56.2031 38.1999 56.1922 37.4328 56.1922 36.6316V35.435H53.5068V33.9014H61.4056V36.6662C61.4056 36.8632 61.4165 37.0612 61.4056 37.2586C61.3832 37.6189 61.316 38.6527 60.4881 39.3846C59.8279 39.977 59.0896 39.9997 58.7765 39.9997C57.5458 39.9997 56.9081 39.3376 56.6397 38.908Z" fill="white"/>
</svg>
