<svg width="98" height="40" viewBox="0 0 98 40" fill="none" xmlns="http://www.w3.org/2000/svg">
<path d="M8.59473 15C10.3267 15 11.6429 15.3122 12.9053 15.8848V18.9014C12.2611 18.5243 11.0253 18.1856 9.73633 18.1855C7.73574 18.1855 6.68781 18.8487 6.6875 19.8369C6.6875 20.851 7.78873 21.5146 9.72266 21.5146C11.1052 21.5146 12.2876 21.1637 12.9189 20.748V23.6738C11.5492 24.4014 10.3137 24.7266 8.4873 24.7266C4.28363 24.7265 2.00019 22.6725 2 19.9287C2 17.2113 4.25663 15.0001 8.59473 15ZM19.668 15C23.7243 15 26.1951 16.9898 26.1953 19.7979C26.1953 22.5153 23.7247 24.7265 19.6553 24.7266C15.5858 24.7266 13.1279 22.5025 13.1279 19.7979C13.1282 16.9898 15.5859 15.0001 19.668 15ZM30.6279 20.2803C30.628 21.0988 31.1117 21.5938 32.0117 21.5938C32.8985 21.5936 33.3955 21.0987 33.3955 20.2803V15.3125H37.6387V20.3193C37.6384 23.0629 35.4895 24.7264 32.0117 24.7266C28.5337 24.7266 26.384 23.0631 26.3838 20.3193V15.3125H30.6279V20.2803ZM96 22.126V24.458H93.5928V22.126H96ZM89.3125 15.334C91.6627 15.334 93.1404 16.5434 93.1406 18.4678C93.1406 20.0663 92.0654 21.0551 90.8301 21.2764L93.1807 24.4365H88.3184L85.9551 20.8213V24.4365H81.6973V15.334H89.3125ZM46.3135 20.3848V15.3135H60.1523V24.415H44.7695L42.083 19.3057V24.415H38.457V15.3135H43.708L46.3135 20.3848ZM80.8691 17.9658H75.8594V18.7979H80.6416V20.8398H75.8594V21.7627H80.8965V24.415H71.6025V18.3818H68.459V24.415H64.2021V18.3818H60.9785V15.3135H80.8691V17.9658ZM19.6553 18.0557C18.4726 18.0557 17.708 18.745 17.708 19.8242C17.7082 20.917 18.473 21.6709 19.6553 21.6709C20.8369 21.6709 21.6024 20.917 21.6025 19.8242C21.6025 18.745 20.8379 18.0557 19.6553 18.0557ZM85.9551 19.8457H87.418C88.2641 19.8457 88.7343 19.4953 88.7344 18.8584C88.7344 18.2599 88.2778 17.9346 87.4717 17.9346H85.9551V19.8457Z" fill="white"/>
</svg>
