<svg width="98" height="40" viewBox="0 0 98 40" fill="none" xmlns="http://www.w3.org/2000/svg">
<path d="M45.4509 31.3215C44.759 31.3215 44.3445 30.9431 44.3445 30.3749C44.3445 29.8072 44.759 29.4283 45.4509 29.4283C46.1427 29.4283 46.5567 29.8068 46.5567 30.3745C46.5567 30.9426 46.1423 31.3215 45.4509 31.3215ZM45.4509 28.9552C44.4826 28.9552 43.7912 29.5229 43.7912 30.3749C43.7912 31.2269 44.4826 31.7946 45.4509 31.7946C46.4192 31.7946 47.1101 31.2269 47.1101 30.3749C47.1101 29.5229 46.4187 28.9552 45.4509 28.9552ZM39.1353 29.0498V30.0435H37.2917V29.0498H36.7388V31.7H37.2917V30.5642H39.1353V31.7H39.6882V29.0498H39.1353ZM53.6559 29.0498L52.6417 30.9902L51.6734 29.0498H50.7977V31.7H51.3048V29.5705L52.3648 31.7H52.8719L53.9324 29.5229V31.7H54.4853V29.0498H53.6559ZM58.4498 29.0498V31.7H61.2617V31.1794H59.0027V30.5642H60.9389V30.0911H59.0027V29.5234H61.2154V29.0498H58.4498ZM5.62376 14.1892V16.5555H1.24478V14.1892H0V20.4362H1.24478V17.7389H5.62331V20.4362H6.86854V14.1892H5.62376ZM14.3822 14.1892H13.1374V20.4362H14.3822V14.1892ZM20.651 14.1892V20.4362H26.5976V19.1586H21.8954V14.1892H20.651ZM31.3915 14.1892V20.4362H37.3839V19.1586H32.6358V14.1892H31.3915ZM52.319 14.1892V16.5555H47.94V14.1892H46.6952V20.4362H47.94V17.7389H52.319V20.4362H53.5633V14.1892H52.319ZM64.3037 17.3129C64.3037 18.6375 63.2896 19.49 61.7225 19.49C60.1554 19.49 59.1412 18.638 59.1412 17.3129C59.1412 15.9878 60.1554 15.1358 61.7225 15.1358C63.2896 15.1358 64.3037 15.9878 64.3037 17.3129ZM61.6766 14C59.3718 14 57.8043 15.3726 57.8043 17.3129C57.8043 19.2532 59.4177 20.6258 61.6766 20.6258C63.9351 20.6258 65.5485 19.2532 65.5485 17.3129C65.5944 15.3726 63.9814 14 61.6766 14ZM74.952 17.4075C74.952 18.8272 74.2606 19.4429 72.7394 19.4429C71.3103 19.4429 70.6652 18.7802 70.6652 17.36V14.1892H69.3746V17.5968C69.3746 19.5846 70.573 20.6729 72.6935 20.6729C74.9057 20.6729 76.1505 19.5375 76.1505 17.5968V14.1892H74.9057V17.4075H74.952ZM83.9406 16.6977C82.512 16.6977 81.8664 16.6031 81.8664 15.9408C81.8664 15.3725 82.5578 15.0883 83.9406 15.0883C85.0469 15.0883 85.6003 15.3726 85.8305 15.9878V16.0349L87.0752 15.9878V15.8932C86.7988 14.5677 85.8768 14 83.9406 14C81.6821 14 80.5758 14.6152 80.5758 15.9403C80.5758 17.8335 82.5578 17.8335 83.4798 17.8335H84.1712C85.0932 17.8335 85.9689 17.9282 85.9689 18.5434C85.9689 19.2057 85.2775 19.5371 83.9869 19.5371C82.65 19.5371 81.9127 19.1586 81.8201 18.4958V18.4492H80.4836V18.5438C80.5758 19.4429 80.9444 19.9165 81.728 20.342C82.1892 20.5788 82.8343 20.6734 83.9406 20.6734C86.1074 20.6734 87.3059 19.9165 87.3059 18.5438C87.2137 16.8398 85.7846 16.6977 83.9406 16.6977ZM91.5005 14.1892V20.4362H98V19.2532H92.699V17.786H97.3086V16.6977H92.699V15.3246H97.8615V14.1897L91.5005 14.1892Z" fill="white"/>
</svg>
