<svg width="98" height="40" viewBox="0 0 98 40" fill="none" xmlns="http://www.w3.org/2000/svg">
<path fill-rule="evenodd" clip-rule="evenodd" d="M43.7933 13.0512V26.9406C43.2408 26.9406 42.6797 26.9406 42.1102 26.9236C41.2347 26.9491 41.4642 26.9916 41.0221 26.3626C39.084 23.6425 37.4179 20.7354 35.6073 17.9303C35.5393 17.8198 35.4628 17.7178 35.3353 17.5223V26.9151H32.9297V13.0342C33.2952 13.0342 33.6692 13.0342 34.0433 13.0342C34.4768 13.0342 34.9443 13.0342 35.3183 13.0597C35.5223 13.3742 35.8114 13.7652 36.0664 14.1392C37.758 16.7658 39.4581 19.3924 41.1497 22.0275C41.2007 22.1125 41.2602 22.189 41.3792 22.2655V13.0512H43.7933Z" fill="white"/>
<path fill-rule="evenodd" clip-rule="evenodd" d="M80.4473 26.8985V13.111C80.4813 13.0855 80.4983 13.0685 80.5238 13.0685C81.9008 13.077 83.2949 13.0175 84.6635 13.111C87.6982 13.3235 90.1463 15.4996 90.8264 18.4832C91.8039 22.7928 88.5397 26.9155 84.1365 26.924C82.9889 26.924 81.8413 26.924 80.6938 26.924C80.6258 26.924 80.5493 26.907 80.4473 26.8985ZM82.8784 24.4674C83.3714 24.4674 83.822 24.4844 84.281 24.4674C86.0066 24.3824 87.2987 23.5664 88.0807 22.0278C88.8542 20.5063 88.7692 18.9677 87.8342 17.5397C86.6611 15.7376 84.893 15.3466 82.8784 15.5591V24.4674Z" fill="white"/>
<path fill-rule="evenodd" clip-rule="evenodd" d="M68.0534 20.7692V24.4329H73.1452V26.8554H65.6562V13H73.1452V15.2866H68.0534V18.3297H73.1282V20.7692H68.0534Z" fill="white"/>
<path fill-rule="evenodd" clip-rule="evenodd" d="M15.1125 15.3973H11.7293V26.8896H9.31519V15.4143H6V13.0342H15.1125V15.3973Z" fill="white"/>
<path fill-rule="evenodd" clip-rule="evenodd" d="M59.2477 13.0254V15.3885H55.856V26.8893H53.4418V15.4055H50.1182V13.0254H59.2477Z" fill="white"/>
<path d="M25.3981 24.6367H24.6246V26.0903H21.4199V26.8723H25.4066V26.0903H25.3981V24.6367Z" fill="white"/>
<path d="M25.3891 22.0869H21.4023V22.1379V22.8689H25.3891V22.0869Z" fill="white"/>
<path d="M25.3473 14.5639L25.3388 13.1104H24.6673V14.5639H23.6387V13.1104H22.9587V14.5639H22.1001V13.1104H21.4541V15.2439H25.3388V14.5639H25.3473Z" fill="white"/>
<path d="M21.4541 16.834V17.6245L24.2593 18.5935L21.4541 19.5541V19.6646V20.3616L25.4153 18.9336V18.2705L21.4541 16.834Z" fill="white"/>
</svg>
