<svg width="98" height="40" viewBox="0 0 98 40" fill="none" xmlns="http://www.w3.org/2000/svg">
<g clip-path="url(#clip0_13_931)">
<path d="M78.8964 16.9347H76.3009V20.331H78.9476C80.2157 20.331 80.9492 19.6551 80.9492 18.6592V18.6255C80.9492 17.5095 80.1689 16.9347 78.8964 16.9347ZM30.0173 16.9347H27.4236V20.331H30.0702C31.3386 20.331 32.0721 19.6551 32.0721 18.6592V18.6255C32.0742 17.5095 31.2899 16.9347 30.0173 16.9347ZM5.49636 16.9347H2.90263V20.331H5.5492C6.81753 20.331 7.55106 19.6551 7.55106 18.6592V18.6255C7.55314 17.5095 6.77314 16.9347 5.50059 16.9347H5.49636ZM17.3891 17.6275L15.8099 21.4637H18.9681L17.3891 17.6275ZM65.336 16.7852C63.2327 16.7852 61.7742 18.4402 61.7742 20.4678V20.5015C61.7742 22.5313 63.2666 24.2199 65.3677 24.2199C67.4689 24.2199 68.9317 22.5649 68.9317 20.5352V20.5015C68.9381 18.4718 67.4457 16.7831 65.3402 16.7831L65.336 16.7852ZM88.9377 14.5934L92.0596 19.5961L95.1837 14.5934H97.9997V26.416H95.4042V18.6929L92.0618 23.7462H91.9942L88.686 18.7434V26.416H86.1239V14.5934H88.9377ZM79.1162 14.5934C81.9173 14.5934 83.5959 16.0672 83.5959 18.497V18.5307C83.5959 20.4405 82.5617 21.6406 81.0591 22.1986L83.9612 26.4244H80.9047L78.3678 22.6344H76.3157V26.4244H73.688V14.5934H79.1162ZM57.8254 14.5934V16.9516H51.395V19.4782H57.0623V21.8364H51.395V26.416H48.7738V14.5934H57.8254ZM46.1991 14.5934V16.9095H39.8363V19.3098H45.436V21.6259H39.8406V24.1104H46.2879V26.4265H37.2447V14.5934H46.1991ZM30.2393 14.5934C33.0381 14.5934 34.7165 16.0672 34.7165 18.4886V18.5223C34.7165 20.432 33.6828 21.6322 32.1799 22.1902L35.0801 26.416H32.0192L29.4826 22.626H27.4236V26.416H24.8088V14.5934H30.2393ZM18.632 14.5007L23.7223 26.416H20.9889L19.9046 23.7609H14.882L13.7954 26.416H11.1319L16.2201 14.5007H18.632ZM5.72043 14.5934C8.51918 14.5934 10.1997 16.0672 10.1997 18.497V18.5307C10.1997 20.4405 9.16391 21.6406 7.66309 22.1986L10.5655 26.4244H7.50243L4.96578 22.6344H2.90263V26.4244H0.291992V14.5934H5.72043ZM65.3741 14.3828C69.0395 14.3828 71.6692 17.1032 71.6692 20.4657V20.4994C71.6692 23.8683 69.0057 26.6181 65.3402 26.6181C61.6748 26.6181 59.0472 23.8977 59.0472 20.5331V20.4994C59.0472 17.1369 61.7108 14.3828 65.3741 14.3828Z" fill="white"/>
</g>
<defs>
<clipPath id="clip0_13_931">
<rect width="98" height="13" fill="white" transform="translate(0 14)"/>
</clipPath>
</defs>
</svg>
