<svg width="171" height="50" viewBox="0 0 171 50" fill="none" xmlns="http://www.w3.org/2000/svg">
<path d="M105.632 3.42676C106.419 3.20621 106.901 3.62298 107.104 4.65234C107.257 4.82392 107.688 5.0208 108.373 5.19238C108.982 5.38846 109.287 5.75566 109.287 6.31934C109.287 7.29988 108.018 9.58028 105.454 13.1348C104.134 14.9732 102.738 17.057 101.291 19.3857C97.8133 24.9748 95.7567 30.294 95.1475 35.3438C95.4775 35.3192 96.2395 34.8049 97.3818 33.7754C98.5242 32.7703 99.8695 31.5197 101.418 30.0244C105.104 26.4193 107.901 23.9377 109.802 22.5732C110.798 21.2027 111.997 20.0805 113.415 19.1895C113.77 19.1163 114.227 19.3857 114.811 19.9736C115.394 20.562 115.674 20.9794 115.674 21.249C115.674 21.3228 115.648 21.5188 115.572 21.8857C115.496 22.2534 115.115 23.0625 114.43 24.2637C113.744 25.4648 112.958 26.7641 112.12 28.1123C111.282 29.4851 110.52 30.7599 109.835 31.9365C109.15 33.1376 108.719 34.0694 108.516 34.7803C110.293 33.6036 112.526 31.7154 115.191 29.1416C116.486 27.867 117.831 26.6413 119.202 25.4893C119.825 24.9558 120.471 24.4655 121.135 24.0137C121.365 23.5599 121.612 23.0988 121.874 22.6309C122.864 20.8659 124.032 19.3216 125.352 18.0225C126.672 16.7232 128.068 15.9144 129.515 15.5957C129.819 15.5222 130.124 15.4971 130.403 15.4971C131.571 15.4971 132.739 15.9874 133.906 16.9678L134.135 16.9932C134.312 16.9932 134.49 16.8702 134.643 16.6006C134.719 16.5025 134.795 16.4046 134.871 16.3311C135.303 16.0369 135.76 15.9382 136.293 16.0117C136.801 16.0854 137.359 16.4295 137.942 16.9932C138.526 17.5567 138.805 18.022 138.78 18.3896C138.78 18.8064 138.221 20.1304 137.079 22.4102C135.048 26.4545 133.957 29.298 133.805 30.916C135.607 29.6903 137.714 27.877 140.151 25.4502C140.68 24.9153 141.221 24.3861 141.771 23.8604C142.729 22.5956 143.406 21.8422 143.838 21.6006C144.295 21.331 144.6 21.209 144.727 21.209C145.183 21.2091 145.716 21.4291 146.351 21.8945C146.96 22.3603 147.265 22.8021 147.265 23.1943C147.265 23.8807 147.087 24.5918 146.757 25.3271C147.924 24.1506 149.041 22.9735 150.107 21.7725C151.25 20.4732 152.317 19.3456 153.307 18.4141C154.296 17.5074 154.982 17.0171 155.413 16.9434C155.819 16.8699 156.048 16.8448 156.124 16.8447C156.809 16.8447 157.368 17.3602 157.825 18.3652C157.977 18.3407 158.155 18.3164 158.333 18.3164C158.561 18.3164 158.79 18.3406 159.069 18.3896C159.526 18.4633 159.83 18.7085 160.008 19.125C160.008 20.7182 159.78 22.189 159.298 23.5371C158.79 24.9833 158.206 26.4542 157.521 27.9004C156.124 30.8664 155.286 33.3426 155.007 35.3281C156.581 34.3231 158.053 33.1954 159.398 31.9697C160.744 30.7686 161.963 29.5926 163.105 28.4404C164.425 27.1167 165.593 26.0376 166.634 25.2041C167.649 24.3708 168.563 23.9542 169.4 23.9541C170.035 23.9541 170.467 24.1501 170.695 24.5176C170.898 24.8851 171 25.2041 171 25.4736C171 26.9689 169.832 28.8813 167.472 31.1855C166.329 32.3132 165.288 33.3188 164.298 34.1768C163.486 34.8873 162.902 35.4263 162.572 35.7939C159.678 38.564 157.342 39.9375 155.54 39.9375C155.033 39.9375 154.551 39.8386 154.068 39.6426C152.875 39.1768 151.783 37.9757 150.742 36.0146C150.666 35.549 150.641 35.0828 150.641 34.6172C150.641 33.1219 151.123 31.0873 152.062 28.5381C152.342 27.7292 152.621 26.9447 152.875 26.1357C149.473 29.8128 146.757 32.8776 144.727 35.3535C142.823 37.6576 141.376 39.2998 140.335 40.2559C139.294 41.2364 138.38 41.7266 137.618 41.7266C136.552 41.7265 135.384 40.6481 134.115 38.4912C134.115 37.8414 134.458 36.7424 135.167 35.1484C134.891 35.1863 134.614 35.2061 134.338 35.2061C134.262 35.2061 133.805 35.1817 132.992 35.1572C132.155 35.1325 131.139 34.1277 129.896 32.167C129.87 32.118 129.845 32.0928 129.794 32.0928C129.642 32.0928 129.261 32.4116 128.626 33.0244C127.027 34.7159 125.504 35.7455 124.107 36.1377C123.854 36.2112 123.6 36.2363 123.371 36.2363C122.711 36.2363 122.001 35.9659 121.214 35.4512C120.497 34.982 119.781 33.9218 119.063 32.3086C118.552 32.8405 117.999 33.4123 117.4 34.0205C113.313 38.1632 109.962 40.2953 107.348 40.418C105.139 39.4129 103.895 38.2119 103.616 36.7656C103.565 36.4961 103.54 36.2267 103.54 35.9082C103.54 35.52 103.586 35.1009 103.677 34.6514C102.809 35.6608 101.779 36.6043 100.631 37.501C99.4378 38.4324 98.194 39.0698 96.9502 39.4375C96.5186 39.5601 96.1122 39.6338 95.6807 39.6338C94.9191 39.6338 94.0818 39.3636 93.1934 38.7998C92.3049 38.236 91.5174 36.8884 90.832 34.7559C90.832 33.8489 90.8828 33.0884 90.9844 32.4756C90.0959 33.211 89.1316 34.1428 88.1416 35.2949C87.0246 36.5451 85.8562 37.6969 84.6377 38.751C83.3939 39.805 82.1501 40.3686 80.8555 40.4912H80.5762C79.3832 40.4911 78.19 39.7809 76.9971 38.3838C76.6163 37.918 76.4385 37.329 76.4385 36.6426C76.4385 36.6248 76.4392 36.6069 76.4395 36.5889C73.5689 39.0465 71.1328 40.324 69.1279 40.418C66.9196 39.4129 65.6757 38.2119 65.3965 36.7656C65.3458 36.4961 65.3203 36.2266 65.3203 35.9082C65.3203 35.3017 65.432 34.6203 65.6533 33.8643C65.0734 35.1105 64.1628 36.3734 62.9258 37.6455C60.9457 39.6801 58.6352 41.5672 56.0205 43.3076C53.4059 45.048 50.9438 46.4944 48.6846 47.6465C46.3999 48.7986 44.8006 49.4612 43.8867 49.6328C43.0998 49.8779 42.3885 50 41.7539 50C40.2818 49.9999 39.0886 49.3139 38.1494 47.9658C37.261 47.0098 36.8292 45.9556 36.8291 44.8525C36.8291 44.4849 36.8799 44.0924 36.9814 43.7002C37.413 42.1313 38.2766 40.562 39.6221 38.9932C40.9674 37.4244 42.4145 35.9781 43.9883 34.6299C45.562 33.3063 46.9075 32.228 48.0244 31.3701C48.5575 30.9779 48.9639 30.6592 49.2432 30.4141C47.441 28.9924 46.5265 27.9626 46.501 27.3252C46.4756 26.7124 46.4502 26.344 46.4502 26.2705C46.4503 25.1921 46.8822 24.1873 47.7451 23.2314C48.6843 22.2265 49.7504 21.2458 50.9941 20.3389C51.8826 19.5789 53.0257 18.8429 54.3711 18.083C55.7164 17.3232 56.8841 16.8331 57.874 16.5635C58.8637 16.2939 59.6251 16.171 60.1582 16.1709C60.8182 16.1709 61.4279 16.2939 61.9609 16.5391C62.9256 17.0048 63.4844 18.0343 63.6621 19.6768C63.6367 20.0199 63.5605 20.3144 63.3828 20.5596C63.2052 20.8291 63.0273 21.0006 62.9004 21.0986C62.7735 21.1967 62.6465 21.2461 62.5703 21.2461C62.3672 21.2461 62.2148 21.0738 62.1387 20.7061C62.0625 20.2405 61.783 20.0195 61.3262 20.0195C60.4884 20.0196 59.0668 20.6821 57.1123 22.0303C55.0054 23.4765 53.2282 24.8735 51.7305 26.2217C51.9843 26.2462 52.2638 26.2705 52.5684 26.2705C54.2438 26.2705 57.3916 25.4617 61.9863 23.8438C63.8902 23.1819 65.7181 22.5938 67.4189 22.1035C69.1197 21.6133 70.5667 21.3682 71.7598 21.3682C72.0307 21.3682 72.2807 21.3902 72.5098 21.4326C73.2992 20.5651 74.1926 19.8196 75.1953 19.1895C75.5507 19.116 76.008 19.3854 76.5918 19.9736C77.1756 20.5619 77.4541 20.9794 77.4541 21.249C77.454 21.3228 77.4285 21.5188 77.3525 21.8857C77.2764 22.2534 76.8963 23.0626 76.2109 24.2637C75.5255 25.4648 74.7381 26.7641 73.9004 28.1123C73.0627 29.485 72.3016 30.7599 71.6162 31.9365C70.9308 33.1377 70.499 34.0694 70.2959 34.7803C72.0729 33.6036 74.3072 31.7155 76.9727 29.1416C78.2672 27.8671 79.6128 26.6413 80.9834 25.4893C81.6494 24.9189 82.34 24.3961 83.0527 23.9189C85.731 20.5497 88.3873 18.302 91.0098 17.1787C91.8728 16.811 92.7111 16.6152 93.5234 16.6152C94.3355 16.6153 95.1224 16.7867 95.8584 17.1543C95.8838 17.2278 95.9346 17.2529 96.0107 17.2529C96.29 17.2529 97.0266 16.1003 98.2197 13.7715C99.1589 11.9331 100.25 9.99641 101.52 7.96191C102.763 5.92735 104.134 4.4318 105.632 3.42676ZM61.0215 30.3398C60.0823 30.3399 58.813 30.6345 57.2393 31.1982C54.1169 33.0368 51.1468 35.1206 48.3291 37.4004C45.4861 39.7046 43.0493 42.3765 41.0186 45.416C47.1109 43.4549 53.1782 39.7778 59.2197 34.3604C61.0727 32.8161 62.0117 31.8841 62.0625 31.5654C62.0879 31.247 62.1133 31.0754 62.1133 31.0264C62.1132 30.5608 61.7575 30.3398 61.0215 30.3398ZM21.3994 0C23.151 0 24.6487 0.686803 25.8926 2.05957C27.3395 2.57436 28.3302 3.38311 28.8887 4.51074C29.5232 5.80992 29.8281 7.50128 29.8281 9.63379C29.8281 11.3987 29.447 13.4088 28.6855 15.6885C27.7463 18.5321 26.401 21.4497 24.6494 24.4648C22.8978 27.48 20.9175 30.2748 18.709 32.8242C16.5005 35.3735 14.3423 37.3102 12.2607 38.6094C10.1541 39.9083 8.25041 40.5702 6.5498 40.5703C6.1691 40.5703 5.81333 40.5461 5.45801 40.4971C3.42723 40.1784 1.70086 38.6827 0.304688 35.9863C0.101605 34.7852 0 33.6818 0 32.6768C5.57736e-07 31.8188 0.0762043 31.0585 0.228516 30.3721C0.558513 28.9259 0.99038 27.6759 1.47266 26.6709C2.05648 25.3962 2.36035 24.3663 2.36035 23.6064C2.36034 23.337 2.33588 23.0429 2.28516 22.7734C2.10748 22.0626 2.03127 21.3516 2.03125 20.5918C2.03125 19.1456 2.36062 17.6256 2.99512 15.9834C3.98508 13.5077 5.43224 11.105 7.36133 8.77637C9.29061 6.44757 11.4233 4.48597 13.7588 2.89258C16.0689 1.29919 17.846 0.416713 19.0898 0.245117C20.3331 0.0736057 21.0945 6.46415e-05 21.3994 0ZM40.3115 2.02148C40.8444 2.02159 41.3264 2.19393 41.7832 2.56152C42.2655 2.90471 42.4941 3.39492 42.4941 4.03223C42.4941 4.96368 42.2401 6.09137 41.7578 7.43945C41.047 9.4005 39.6762 12.3174 37.6963 16.2393C37.0109 17.5385 36.5791 18.4461 36.3506 18.9609C36.909 18.6178 37.4172 18.2747 37.8994 17.9561C39.2447 16.9021 40.387 16.3868 41.3262 16.3867C42.24 16.3867 43.3323 16.9999 44.6016 18.2256C45.9974 18.5444 46.6826 19.5982 46.6826 21.4365C46.6826 22.8338 46.3016 24.4765 45.5654 26.4131C44.8293 28.3496 43.7633 30.2621 42.3672 32.125C40.9711 33.9879 39.4478 35.4092 37.7471 36.3896C36.7064 36.9779 35.6911 37.2724 34.6504 37.2725C33.965 37.2725 33.3045 37.1495 32.6191 36.8799C32.2892 36.7083 31.8572 36.4139 31.2988 35.9482C30.7407 35.5072 30.3094 35.0418 30.0049 34.5273C29.878 34.3068 29.8018 34.0857 29.8018 33.8896C29.8018 33.6445 29.9034 33.4235 30.1318 33.252C30.4364 33.6686 30.8675 33.8895 31.4512 33.8896C31.8066 33.8896 32.3908 33.7425 33.2031 33.4238C34.0154 33.1297 35.1068 32.345 36.5029 31.0459C37.8991 29.7467 39.1438 28.2027 40.2607 26.3643C41.3522 24.5504 42.1133 22.638 42.4941 20.6035C39.3973 22.491 36.6811 24.7706 34.3711 27.418C32.0357 30.0899 29.6743 33.0803 27.3135 36.4141C26.603 37.5412 26.0957 38.105 25.791 38.1055L25.334 38.1309C24.7501 38.1309 24.0643 37.9837 23.3535 37.665C22.6175 37.3219 22.2365 36.7824 22.2363 35.9736C22.2363 35.8267 22.2617 35.6792 22.2871 35.5078C26.8057 25.8249 32.7213 14.6705 40.0068 2.0459L40.3115 2.02148ZM23.5068 3.75098C22.9737 3.75098 22.3641 3.87293 21.6787 4.14258C20.2318 4.68189 18.6832 5.56452 17.0332 6.76562C15.3832 7.96677 13.8854 9.26595 12.5146 10.6387C11.1438 12.0359 10.1288 13.2621 9.49414 14.3652C10.1288 13.9975 10.7892 13.8008 11.4746 13.8008C12.1598 13.8009 12.7688 14.1205 13.3271 14.7822C13.9618 14.8803 14.3428 15.0516 14.4697 15.3213C14.5966 15.5908 14.6475 15.8117 14.6475 16.0322C14.6474 16.5714 14.4188 17.1353 13.9873 17.748C13.5304 18.3608 13.1747 18.6797 12.9463 18.6797C12.8703 18.6795 12.8194 18.6058 12.8193 18.4834C12.9463 18.1647 12.9463 17.9931 12.8447 18.0176C10.9917 19.8315 9.59549 21.4251 8.68164 22.7979C7.74254 24.1704 7.25982 25.0773 7.18359 25.5186C7.10744 25.9598 7.05664 26.2542 7.05664 26.4258C7.05664 27.2347 7.53933 27.7743 8.5293 28.0439C9.03695 28.2155 9.29096 28.3868 9.29102 28.6074C9.29102 28.779 9.1386 29.0241 8.80859 29.3428L8.58008 29.3672C8.14863 29.3672 7.56499 29.2693 6.8291 29.0732C6.47371 28.8771 6.1435 28.6806 5.86426 28.46C5.33117 29.6611 4.92474 31.0347 4.62012 32.5791C4.3917 33.682 4.26465 34.5891 4.26465 35.2754C4.26469 36.4519 4.6711 37.04 5.45801 37.04C6.75264 37.0399 8.9863 35.3977 12.1084 32.1377C15.4593 28.6322 18.3286 25.0771 20.7402 21.4736C21.7808 19.9295 22.3389 18.8753 22.4404 18.3115C24.3443 13.9727 25.3858 11.1045 25.5889 9.6582C25.7919 8.23655 25.8926 7.28038 25.8926 6.76562C25.8925 4.75562 25.106 3.75099 23.5068 3.75098ZM95.0205 19.9248C94.8175 19.9738 94.6395 20.0476 94.4619 20.1211C91.7459 21.7144 89.436 23.7245 87.5322 26.1758C85.6029 28.6517 83.902 31.1768 82.4551 33.7998C86.0851 30.1473 88.5471 27.6463 89.8418 26.249C91.7456 24.2144 93.472 22.1065 95.0205 19.9248ZM70.083 24.9297C67.8442 25.6465 65.7126 26.5798 63.6621 27.7168C63.8906 28.3296 64.3468 28.9188 64.9814 29.4336C65.8698 30.2424 66.327 30.9283 66.3271 31.5166V31.7129C66.2925 31.9331 66.2457 32.1536 66.1895 32.375C66.377 31.9306 66.5955 31.4658 66.8438 30.9805C67.326 30.0982 67.8332 29.1667 68.3154 28.2109C68.8637 27.0898 69.4528 25.9977 70.083 24.9297ZM132.738 18.7334C132.408 18.7337 131.596 19.2482 130.251 20.2529C126.976 23.2681 124.717 26.8475 123.473 30.9658C123.752 30.8433 124.412 30.2058 125.453 29.0781C126.494 27.9505 127.611 26.6262 128.829 25.1309C131.545 21.773 132.916 19.7143 132.916 18.9541C132.916 18.807 132.865 18.7334 132.738 18.7334ZM80.2217 10.7812C80.6277 10.7814 80.8564 11.1736 80.8818 11.9824C81.897 12.056 82.4043 12.3747 82.4043 12.9385L82.3789 13.3799C82.3534 13.674 82.0239 14.1887 81.3896 14.9482C80.755 15.7082 80.0184 16.3707 79.2314 16.959C78.2672 17.6696 77.5565 18.0125 77.0742 18.0127C76.6427 17.9392 76.3124 17.6448 76.0332 17.1055C75.9571 16.8359 75.9316 16.5664 75.9316 16.2969C75.9316 15.8557 76.1095 15.2676 76.4395 14.5322C76.7695 13.7968 77.3019 13.0364 78.0381 12.252C78.9266 11.2714 79.6378 10.7812 80.2217 10.7812ZM118.44 10.7812C118.847 10.7812 119.075 11.1735 119.101 11.9824C120.116 12.056 120.624 12.3747 120.624 12.9385L120.599 13.3799C120.573 13.6741 120.243 14.1885 119.608 14.9482C118.974 15.7081 118.238 16.3707 117.451 16.959C116.487 17.6699 115.775 18.0127 115.293 18.0127C114.861 17.9391 114.531 17.6447 114.252 17.1055C114.176 16.836 114.15 16.5664 114.15 16.2969C114.15 15.8557 114.328 15.2675 114.658 14.5322C114.988 13.7968 115.522 13.0364 116.258 12.252C117.146 11.2717 117.857 10.7815 118.44 10.7812Z" fill="url(#paint0_linear_52_1654)"/>
<defs>
<linearGradient id="paint0_linear_52_1654" x1="171" y1="25.0003" x2="0" y2="25.0003" gradientUnits="userSpaceOnUse">
<stop stop-color="#E227F6"/>
<stop offset="1" stop-color="#5123FF"/>
</linearGradient>
</defs>
</svg>
