<svg width="134" height="40" viewBox="0 0 134 40" fill="none" xmlns="http://www.w3.org/2000/svg">
<path d="M105.918 28.1211C105.702 28.1512 105.486 28.166 105.271 28.166C105.211 28.166 104.852 28.1466 104.216 28.127C103.559 28.107 102.764 27.3029 101.789 25.7344C101.769 25.6953 101.75 25.6758 101.71 25.6758C101.591 25.6758 101.292 25.9306 100.795 26.4209C99.5417 27.774 98.348 28.5973 97.2539 28.9111C97.055 28.97 96.8558 28.9902 96.6768 28.9902C96.1597 28.9902 95.6028 28.774 94.9863 28.3623C94.4241 27.9868 93.863 27.1379 93.3008 25.8467C92.9002 26.2719 92.4668 26.7287 91.998 27.2148C88.7953 30.5291 86.1691 32.2359 84.1201 32.334C82.3895 31.5299 81.4151 30.5682 81.1963 29.4111C81.1566 29.1957 81.1367 28.9802 81.1367 28.7256C81.1367 28.4152 81.1722 28.08 81.2432 27.7207C80.563 28.5282 79.7573 29.2837 78.8574 30.001C77.9225 30.7461 76.9473 31.2556 75.9727 31.5498C75.6345 31.6479 75.3157 31.707 74.9775 31.707C74.3809 31.7069 73.7244 31.491 73.0283 31.04C72.3322 30.589 71.7157 29.5105 71.1787 27.8047C71.1787 27.0791 71.2183 26.4707 71.2979 25.9805C70.6016 26.5688 69.8451 27.3137 69.0693 28.2354C68.1941 29.2355 67.2791 30.1577 66.3242 31.001C65.3496 31.8441 64.3748 32.2955 63.3604 32.3936H63.1416C62.2068 32.3935 61.2718 31.8247 60.3369 30.707C60.0385 30.3344 59.8994 29.8636 59.8994 29.3145C59.8994 29.2996 59.9002 29.2846 59.9004 29.2695C57.6509 31.2358 55.742 32.2587 54.1709 32.334C52.4402 31.5299 51.4649 30.5682 51.2461 29.4111C51.2064 29.1957 51.1865 28.9802 51.1865 28.7256C51.1865 28.237 51.2773 27.6881 51.4531 27.0781C50.999 28.079 50.2838 29.0935 49.3105 30.1152C47.7589 31.7429 45.9484 33.2531 43.8994 34.6455C41.8505 36.0378 39.9208 37.1945 38.1504 38.1162C36.3601 39.0379 35.1068 39.5678 34.3906 39.7051C33.774 39.9012 33.217 39.999 32.7197 39.999C31.566 39.999 30.6306 39.4497 29.8945 38.3711C29.1985 37.6064 28.8604 36.7632 28.8604 35.8809C28.8604 35.5867 28.8999 35.2728 28.9795 34.959C29.3177 33.7039 29.9945 32.4485 31.0488 31.1934C32.1031 29.9384 33.2375 28.7816 34.4707 27.7031C35.7039 26.6443 36.7576 25.781 37.6328 25.0947C38.0505 24.781 38.3691 24.5262 38.5879 24.3301C37.1759 23.193 36.4597 22.3693 36.4395 21.8594C36.4196 21.3691 36.3994 21.0745 36.3994 21.0156C36.3994 20.1528 36.7378 19.3487 37.4141 18.584C38.1501 17.7799 38.9862 16.9951 39.9609 16.2695C40.6571 15.6617 41.5523 15.0737 42.6064 14.4658C43.6607 13.8579 44.5758 13.4657 45.3516 13.25C46.1272 13.0343 46.7239 12.9356 47.1416 12.9355C47.6588 12.9355 48.1369 13.0344 48.5547 13.2305C49.3103 13.6032 49.7475 14.4267 49.8867 15.7402C49.8668 16.0148 49.8072 16.2502 49.668 16.4463C49.5287 16.662 49.3895 16.7995 49.29 16.8779C49.1906 16.9563 49.0909 16.9951 49.0312 16.9951C48.8724 16.9949 48.753 16.8581 48.6934 16.5645C48.6337 16.1918 48.4147 16.0146 48.0566 16.0146C47.4002 16.0148 46.2864 16.5446 44.7549 17.623C43.1038 18.7801 41.7108 19.898 40.5371 20.9766C40.736 20.9962 40.9556 21.0156 41.1943 21.0156C42.5073 21.0155 44.974 20.3684 48.5742 19.0742C50.0661 18.5447 51.4983 18.0739 52.8311 17.6816C54.1637 17.2895 55.2975 17.0938 56.2324 17.0938C56.4447 17.0938 56.6408 17.1116 56.8203 17.1455C57.439 16.4514 58.139 15.8548 58.9248 15.3506C59.2033 15.2918 59.561 15.5079 60.0186 15.9785C60.4761 16.4492 60.6953 16.7823 60.6953 16.998C60.6953 17.057 60.6758 17.214 60.6162 17.5078C60.5565 17.802 60.2578 18.4492 59.7207 19.4102C59.1836 20.3711 58.5666 21.4107 57.9102 22.4893C57.2539 23.5872 56.6571 24.6067 56.1201 25.5479C55.583 26.5088 55.2451 27.2545 55.0859 27.8232C56.4784 26.8819 58.2287 25.3716 60.3174 23.3125C61.3318 22.2928 62.3859 21.3123 63.46 20.3906C63.9829 19.9335 64.5253 19.5142 65.085 19.1318C67.1828 16.4384 69.2632 14.6414 71.3174 13.7432C71.9937 13.449 72.6505 13.292 73.2871 13.292C73.9236 13.292 74.5403 13.4295 75.1172 13.7236C75.1371 13.7824 75.1768 13.8017 75.2363 13.8018C75.4551 13.8018 76.0319 12.8804 76.9668 11.0176C77.7028 9.54676 78.5581 7.99685 79.5527 6.36914C80.5274 4.74155 81.6018 3.54524 82.7754 2.74121C83.392 2.56474 83.7705 2.89832 83.9297 3.72168C84.049 3.85892 84.387 4.01607 84.9238 4.15332C85.4012 4.31021 85.6406 4.60462 85.6406 5.05566C85.6406 5.8401 84.6459 7.66422 82.6367 10.5078C81.6023 11.9786 80.5079 13.6458 79.374 15.5088C76.6489 19.9799 75.038 24.2357 74.5605 28.2754C74.8193 28.2554 75.4158 27.8428 76.3105 27.0195C77.2057 26.2155 78.2602 25.2157 79.4736 24.0195C82.3626 21.1349 84.5543 19.1491 86.0439 18.0576C86.8249 16.9613 87.764 16.0634 88.875 15.3506C89.1534 15.292 89.5114 15.5081 89.9688 15.9785C90.4261 16.449 90.6445 16.7824 90.6445 16.998C90.6445 17.057 90.625 17.214 90.5654 17.5078C90.5057 17.802 90.207 18.4493 89.6699 19.4102C89.1329 20.371 88.5167 21.4108 87.8604 22.4893C87.204 23.5874 86.6064 24.6066 86.0693 25.5479C85.5322 26.5088 85.1943 27.2545 85.0352 27.8232C86.4276 26.8819 88.178 25.3716 90.2666 23.3125C91.2811 22.2927 92.336 21.3123 93.4102 20.3906C93.8986 19.9636 94.4042 19.5706 94.9248 19.209C95.1046 18.8468 95.2977 18.479 95.5029 18.1055C96.2787 16.6935 97.1941 15.4583 98.2285 14.4189C99.2629 13.3796 100.357 12.7325 101.491 12.4775C101.73 12.4187 101.969 12.3994 102.188 12.3994C103.102 12.3995 104.018 12.7909 104.933 13.5752L105.111 13.5957C105.251 13.5957 105.39 13.497 105.51 13.2812C105.569 13.2029 105.629 13.1242 105.688 13.0654C106.027 12.8302 106.385 12.7517 106.803 12.8105C107.2 12.8695 107.638 13.1448 108.096 13.5957C108.553 14.0465 108.772 14.4188 108.752 14.7129C108.752 15.0463 108.314 16.1059 107.419 17.9297C105.828 21.1653 104.972 23.4401 104.853 24.7344C106.265 23.7538 107.917 22.3028 109.826 20.3613C110.239 19.9348 110.661 19.512 111.091 19.0928C111.843 18.0778 112.376 17.474 112.715 17.2803C113.073 17.0646 113.312 16.9668 113.411 16.9668C113.769 16.9668 114.187 17.143 114.685 17.5156C115.162 17.8881 115.4 18.241 115.4 18.5547C115.4 19.1037 115.261 19.6725 115.003 20.2607C115.918 19.3195 116.794 18.3778 117.629 17.417C118.524 16.3778 119.359 15.4756 120.135 14.7305C120.911 14.0049 121.448 13.6125 121.786 13.5537C122.104 13.495 122.283 13.4756 122.343 13.4756C122.88 13.4756 123.318 13.8874 123.676 14.6914C123.795 14.6718 123.934 14.6524 124.073 14.6523C124.252 14.6523 124.432 14.6717 124.65 14.7109C125.008 14.7698 125.247 14.9664 125.387 15.2998C125.387 16.5743 125.207 17.7506 124.829 18.8291C124.431 19.9861 123.975 21.1633 123.438 22.3203C122.343 24.6932 121.687 26.6742 121.468 28.2627C122.701 27.4586 123.855 26.5557 124.909 25.5752C125.963 24.6144 126.918 23.6736 127.813 22.752C128.848 21.6931 129.763 20.8298 130.578 20.1631C131.374 19.4963 132.091 19.1631 132.747 19.1631C133.244 19.1631 133.583 19.3201 133.762 19.6143C133.921 19.9082 134 20.1633 134 20.3789C134 21.5751 133.085 23.105 131.235 24.9482C130.34 25.8503 129.524 26.6544 128.748 27.3408C128.112 27.9094 127.654 28.3406 127.396 28.6348C125.128 30.8506 123.298 31.9491 121.886 31.9492C121.488 31.9492 121.109 31.8708 120.731 31.7139C119.797 31.3412 118.941 30.3802 118.126 28.8115C118.066 28.4389 118.046 28.066 118.046 27.6934C118.046 26.4971 118.424 24.8695 119.16 22.8301C119.379 22.1829 119.598 21.5554 119.797 20.9082C117.131 23.8498 115.003 26.3015 113.411 28.2822C111.919 30.1255 110.785 31.4393 109.97 32.2041C109.154 32.9885 108.438 33.3809 107.841 33.3809C107.005 33.3805 106.09 32.5174 105.096 30.792C105.096 30.2726 105.363 29.3944 105.918 28.1211ZM47.8184 24.2715C47.0824 24.2715 46.0877 24.5061 44.8545 24.957C42.4078 26.4278 40.0801 28.0952 37.8721 29.9189C35.6441 31.7624 33.734 33.9003 32.1426 36.332C36.9168 34.7632 41.6718 31.8213 46.4062 27.4873C47.8577 26.2524 48.5935 25.5072 48.6338 25.252C48.6537 24.9972 48.6738 24.8597 48.6738 24.8203C48.6738 24.4477 48.3951 24.2715 47.8184 24.2715ZM16.7695 0C18.142 2.20981e-05 19.3153 0.549348 20.29 1.64746C21.4239 2.05928 22.2001 2.70632 22.6377 3.6084C23.135 4.64776 23.374 6.00091 23.374 7.70703C23.374 9.11897 23.0753 10.727 22.4785 12.5508C21.7425 14.8256 20.688 17.1592 19.3154 19.5713C17.9429 21.9833 16.3917 24.2193 14.6611 26.2588C12.9305 28.2983 11.2396 29.8483 9.6084 30.8877C7.95731 31.9271 6.46464 32.4561 5.13184 32.4561C4.83378 32.456 4.55555 32.4366 4.27734 32.3975C2.68594 32.1425 1.33237 30.9463 0.238281 28.7891C0.079153 27.8282 1.24253e-05 26.9456 0 26.1416C0 25.4552 0.0593554 24.847 0.178711 24.2979C0.437278 23.141 0.775429 22.1409 1.15332 21.3369C1.61075 20.3174 1.84951 19.4936 1.84961 18.8857C1.84961 18.6701 1.82981 18.4344 1.79004 18.2188C1.65082 17.6502 1.59182 17.0814 1.5918 16.4736C1.5918 15.3166 1.85034 14.1001 2.34766 12.7861C3.12346 10.8055 4.2568 8.88345 5.76855 7.02051C7.28039 5.15747 8.95211 3.58917 10.7822 2.31445C12.5922 1.03991 13.9843 0.333651 14.959 0.196289C15.9337 0.0590123 16.5308 0 16.7695 0ZM31.5889 1.61621C32.0065 1.61623 32.3842 1.75381 32.7422 2.04785C33.1201 2.32241 33.2998 2.71472 33.2998 3.22461C33.2998 3.96976 33.1006 4.87174 32.7227 5.9502C32.1657 7.519 31.0915 9.85271 29.54 12.9902C29.0029 14.0296 28.6644 14.7561 28.4854 15.168C28.923 14.8934 29.3213 14.6182 29.6992 14.3633C30.7534 13.5201 31.6488 13.1084 32.3848 13.1084C33.1008 13.1085 33.9558 13.5989 34.9502 14.5791C36.0443 14.834 36.582 15.6776 36.582 17.1484C36.582 18.2662 36.2829 19.5798 35.7061 21.1289C35.1292 22.6781 34.2942 24.2079 33.2002 25.6982C32.1061 27.1886 30.9128 28.3269 29.5801 29.1113C28.7645 29.582 27.9679 29.8174 27.1523 29.8174C26.6154 29.8173 26.0985 29.7186 25.5615 29.5029C25.303 29.3657 24.9649 29.1303 24.5273 28.7578C24.0897 28.4048 23.7514 28.0319 23.5127 27.6201C23.4133 27.4437 23.3535 27.2672 23.3535 27.1104C23.3536 26.9143 23.4333 26.7378 23.6123 26.6006C23.851 26.9339 24.189 27.1104 24.6465 27.1104C24.925 27.1103 25.3824 26.9931 26.0186 26.7383C26.6551 26.503 27.5105 25.8751 28.6045 24.8359C29.6986 23.7966 30.6736 22.5607 31.5488 21.0898C32.4042 19.6387 33.0014 18.1091 33.2998 16.4814C30.8729 17.9915 28.7438 19.8156 26.9336 21.9336C25.1036 24.0711 23.2532 26.4639 21.4033 29.1309C20.8465 30.0327 20.4486 30.4834 20.21 30.4834L19.8525 30.5029C19.3951 30.5029 18.8577 30.3857 18.3008 30.1309C17.7239 29.8563 17.4248 29.4245 17.4248 28.7773C17.4248 28.6598 17.445 28.5423 17.4648 28.4053C21.0057 20.659 25.6404 11.7354 31.3496 1.63574L31.5889 1.61621ZM18.4209 3C18.0032 3 17.5254 3.09873 16.9883 3.31445C15.8544 3.7459 14.6407 4.45216 13.3477 5.41309C12.0548 6.37394 10.8807 7.41264 9.80664 8.51074C8.73244 9.62857 7.93677 10.6097 7.43945 11.4922C7.93669 11.1981 8.4542 11.0411 8.99121 11.041C9.52823 11.041 10.0058 11.2959 10.4434 11.8252C10.9407 11.9036 11.2394 12.0411 11.3389 12.2568C11.4383 12.4724 11.4775 12.6488 11.4775 12.8252C11.4775 13.2566 11.2991 13.708 10.9609 14.1982C10.6031 14.6883 10.3246 14.9431 10.1455 14.9434C10.0859 14.9434 10.046 14.8849 10.0459 14.7871C10.1454 14.5322 10.145 14.3945 10.0654 14.4141C8.61339 15.8652 7.51983 17.1401 6.80371 18.2383C6.0677 19.3365 5.68957 20.062 5.62988 20.415C5.57021 20.768 5.53027 21.0033 5.53027 21.1406C5.53028 21.7877 5.90805 22.2188 6.68359 22.4346C7.08126 22.5718 7.28009 22.7094 7.28027 22.8857C7.28027 23.023 7.16095 23.2197 6.90234 23.4746L6.72363 23.4941C6.38556 23.4941 5.92819 23.4156 5.35156 23.2588C5.07307 23.1019 4.81354 22.9451 4.59473 22.7686C4.1771 23.7293 3.85879 24.8273 3.62012 26.0625C3.44113 26.9448 3.34185 27.6707 3.3418 28.2197C3.3418 29.1611 3.66067 29.6318 4.27734 29.6318C5.2919 29.6315 7.04196 28.3177 9.48828 25.71C12.114 22.9057 14.3622 20.0623 16.252 17.1797C17.0675 15.9442 17.5054 15.1005 17.585 14.6494C19.0769 11.1783 19.8926 8.88361 20.0518 7.72656C20.2108 6.58964 20.29 5.82501 20.29 5.41309C20.29 3.80514 19.6739 3.00016 18.4209 3ZM74.4609 15.9395C74.3019 15.9786 74.1626 16.0379 74.0234 16.0967C71.895 17.3713 70.0847 18.9795 68.5928 20.9404C67.0809 22.9211 65.7481 24.9417 64.6143 27.04C67.4589 24.118 69.3878 22.1168 70.4023 20.999C71.8943 19.3713 73.2475 17.6848 74.4609 15.9395ZM54.917 19.9463C53.1635 20.5197 51.4928 21.2636 49.8867 22.1729C50.0658 22.6631 50.4246 23.1341 50.9219 23.5459C51.6178 24.1929 51.9756 24.7423 51.9756 25.2129V25.3691C51.9482 25.5468 51.9108 25.7247 51.8662 25.9033C52.0136 25.5465 52.1846 25.1731 52.3799 24.7832C52.7578 24.0772 53.1562 23.3322 53.5342 22.5674C53.9632 21.6717 54.4239 20.7996 54.917 19.9463ZM104.018 14.9873C103.759 14.9873 103.122 15.3991 102.067 16.2031C99.5013 18.6152 97.7316 21.4789 96.7568 24.7734C96.9758 24.6751 97.4933 24.1654 98.3086 23.2637C99.1241 22.3616 99.9993 21.3026 100.954 20.1064C103.083 17.4197 104.156 15.772 104.156 15.1641C104.156 15.0465 104.117 14.9874 104.018 14.9873ZM62.8633 8.62402C63.1816 8.62402 63.361 8.9378 63.3809 9.58496C64.1765 9.64379 64.5741 9.89864 64.5742 10.3496L64.5547 10.7031C64.5346 10.9385 64.2754 11.3504 63.7783 11.958C63.2811 12.5658 62.7045 13.0958 62.0879 13.5664C61.3324 14.1348 60.7754 14.4089 60.3975 14.4092C60.0593 14.3503 59.7999 14.115 59.5811 13.6836C59.5214 13.4679 59.502 13.2518 59.502 13.0361C59.502 12.6832 59.6409 12.2122 59.8994 11.624C60.158 11.0358 60.5765 10.4282 61.1533 9.80078C61.8493 9.01664 62.4058 8.62424 62.8633 8.62402ZM92.8135 8.62402C93.1316 8.62414 93.3102 8.93792 93.3301 9.58496C94.1257 9.64379 94.5243 9.89864 94.5244 10.3496L94.5039 10.7031C94.4838 10.9385 94.2255 11.3504 93.7285 11.958C93.2312 12.5659 92.6538 13.0957 92.0371 13.5664C91.2815 14.1349 90.7246 14.4091 90.3467 14.4092C90.0085 14.3504 89.7501 14.115 89.5312 13.6836C89.4716 13.4679 89.4512 13.2519 89.4512 13.0361C89.4513 12.6832 89.5911 12.2122 89.8496 11.624C90.1082 11.0359 90.5258 10.4281 91.1025 9.80078C91.7988 9.01634 92.3559 8.62402 92.8135 8.62402Z" fill="white"/>
</svg>
