<svg width="98" height="40" viewBox="0 0 98 40" fill="none" xmlns="http://www.w3.org/2000/svg">
<path d="M93.9541 21.5328C93.9006 21.4776 93.8266 21.453 93.7643 21.4881C93.7022 21.5232 93.6425 21.569 93.5952 21.6213C93.3931 21.8443 93.2724 21.965 92.9568 21.9882C92.6298 22.0122 91.8271 22.0482 91.8269 22.0446C91.6342 22.0547 91.2204 22.0433 91.1018 22.0363C91.0239 22.0316 90.9781 21.9741 90.9768 21.8988C90.9753 21.8113 91.3008 21.6082 91.3633 21.5572C91.5958 21.3671 92.5968 20.4613 92.8327 20.2324C93.5884 19.5275 93.5707 18.7315 93.4098 18.2753C93.3321 18.0285 92.9863 17.1954 91.9815 16.9871C91.668 16.9221 91.3517 16.8816 91.0357 16.9302C90.5913 16.9986 90.2371 17.0845 89.8843 17.3588C89.594 17.5846 89.3895 17.8678 89.2689 18.2073C89.1859 18.4409 89.1581 18.6831 89.1549 18.9281C89.1539 18.9982 89.1625 19.0704 89.1802 19.1385C89.2026 19.2249 89.2757 19.276 89.3574 19.2785C89.4519 19.2814 89.5203 19.2386 89.5531 19.1474C89.5723 19.0937 89.583 19.0369 89.5957 18.9812C89.6949 18.5458 90.0591 18.0471 90.4955 17.888C91.2476 17.6355 91.7623 17.8798 91.9815 18.0858C92.3338 18.4203 92.5073 18.8233 92.4444 19.2887C92.4011 19.6097 92.1202 20.0483 91.9352 20.3143C91.7387 20.5971 91.501 20.8467 91.2415 21.0755C91.0099 21.2798 90.7336 21.475 90.4912 21.6676C90.1668 21.9156 89.8281 22.0995 89.5007 22.3011C89.3806 22.375 89.3542 22.3829 89.2402 22.4653C89.171 22.5155 89.1211 22.6316 89.1674 22.7367C89.1967 22.8106 89.2588 22.8507 89.3464 22.8512C89.4165 22.8516 90.6536 22.8264 91.202 22.8178C91.5774 22.8118 91.953 22.8072 92.3283 22.8118C92.5365 22.8142 92.7448 22.835 92.9528 22.8514C93.0592 22.8598 93.1647 22.8811 93.2711 22.8882C93.3494 22.8934 93.4124 22.8562 93.4501 22.7888C93.4732 22.7475 93.4934 22.7042 93.5099 22.6601C93.5867 22.4557 93.6674 22.2532 93.7831 22.0651C93.888 21.8945 93.8802 21.8862 93.9813 21.7135C94.0155 21.6553 94.0011 21.5817 93.9541 21.5328Z" fill="white"/>
<path d="M85.0364 22.2788C83.6502 22.2598 82.79 21.1114 82.7885 19.9803C82.7868 18.4941 83.7309 17.6034 85.1014 17.6209C86.2747 17.636 87.2786 18.6433 87.28 19.8967C87.2815 21.1919 86.2752 22.2958 85.0364 22.2788ZM85.1231 16.889C83.3443 16.8909 82.1104 18.1371 82.1123 19.9041C82.1146 21.738 83.4315 22.9364 85.1303 22.9127C86.8652 22.8886 88.1847 21.6645 88.1825 19.8975C88.1804 18.0984 86.7326 16.8872 85.1231 16.889Z" fill="white"/>
<path d="M75.2947 22.2112C74.73 22.1464 74.8116 21.6268 74.8068 21.4612C74.788 20.8201 74.8125 18.9453 74.8262 18.4433C74.8397 17.8019 74.8646 17.6265 75.2913 17.4865C75.5187 17.4165 75.6039 17.3879 75.6039 17.2764C75.6037 17.1509 75.4899 17.1371 75.2907 17.1374C74.8925 17.1378 74.8556 17.17 74.4572 17.1704C73.9309 17.1709 73.7679 17.1532 73.4977 17.1535C73.2701 17.1537 73.1521 17.1663 73.1422 17.2793C73.1302 17.4183 73.2562 17.4471 73.5408 17.5305C74.0675 17.6694 73.9854 18.2985 73.9936 18.6087C74.0084 19.1709 73.9822 21.085 73.9254 21.4956C73.8355 22.1477 73.9731 22.1703 73.3187 22.3245C73.1055 22.3804 73.0662 22.3959 73.0664 22.4657C73.0664 22.5771 73.1059 22.6448 73.419 22.6444C73.6748 22.6441 73.9353 22.6226 74.4046 22.6222C74.8458 22.6217 74.8488 22.6636 75.2757 22.6631C75.4177 22.6629 75.6694 22.6104 75.6692 22.4187C75.669 22.307 75.5999 22.2462 75.2947 22.2112Z" fill="white"/>
<path d="M79.9842 22.1522C79.861 22.3379 79.69 22.4681 79.4759 22.5397C79.3558 22.5799 79.2226 22.602 79.1014 22.602H79.0976C78.9211 22.6017 78.7761 22.5703 78.6414 22.5033C78.5023 22.4341 78.1634 22.216 78.0241 21.6843C77.9561 21.4047 77.9753 21.1459 78.0798 20.9355C78.2004 20.6844 78.4041 20.5168 78.547 20.4127C78.5968 20.3763 78.6481 20.341 78.699 20.3058L78.7482 20.2718C78.7661 20.2594 78.7858 20.2473 78.8103 20.2473C78.8318 20.2473 78.8506 20.2569 78.8679 20.2667L79.2185 20.4655C79.417 20.5786 79.5618 20.6744 79.6883 20.7766C79.9674 20.9772 80.3913 21.5248 79.9842 22.1522ZM78.091 18.2234C78.0971 18.082 78.1237 17.9554 78.1727 17.8382C78.3348 17.4556 78.6621 17.3611 78.8428 17.3388C78.8911 17.333 78.9392 17.33 78.9867 17.33C79.1341 17.33 79.2808 17.3587 79.4225 17.415C79.532 17.4586 79.6315 17.5152 79.7178 17.5833C80.1723 17.9279 80.1474 18.4218 80.0748 18.8135C79.9925 19.1867 79.7394 19.3568 79.5282 19.4632C79.494 19.4793 79.4601 19.4932 79.4259 19.5071L79.3594 19.5347C79.3397 19.5433 79.3199 19.5476 79.3007 19.5476C79.2781 19.5476 79.2555 19.5417 79.2335 19.5302L79.1235 19.4724C79.0638 19.4412 79.0039 19.4101 78.9452 19.3774L78.9091 19.3559C78.6678 19.2121 78.0268 18.8302 78.091 18.2234ZM79.7237 19.7334C79.7049 19.7226 79.7056 19.7115 79.7244 19.7006C79.7284 19.6984 79.8884 19.6331 79.9625 19.5994C80.8979 19.198 80.8943 18.4447 80.896 18.3063C80.9007 18.1235 80.8793 17.9437 80.8156 17.7692C80.7512 17.5937 80.6488 17.4391 80.5019 17.3097C80.3402 17.1673 80.1479 17.0708 79.9351 17.0063C79.7588 16.9529 79.5774 16.9221 79.3921 16.9099C79.2483 16.9005 79.1048 16.8984 78.9612 16.9131C78.7284 16.9349 78.2122 17.0357 77.8231 17.4188C77.6546 17.5771 77.3891 17.9512 77.4184 18.5106C77.448 18.9367 77.6392 19.2495 77.7376 19.3892C77.9023 19.642 78.2244 19.8999 78.3741 20.0008C78.421 20.0323 78.4212 20.0399 78.3716 20.0673C78.2234 20.1493 78.0767 20.2332 77.9382 20.3281C77.818 20.4105 77.7051 20.4995 77.6059 20.6026C77.0568 21.1629 77.2947 21.9321 77.3709 22.0869C77.4881 22.3375 77.9061 22.8967 79.0323 22.8945C79.2394 22.8949 79.4379 22.8803 79.725 22.7874C80.8897 22.348 81.0216 21.2833 80.7639 20.7158C80.5287 20.1605 80.0214 19.8695 79.7237 19.7334Z" fill="white"/>
<path d="M65.6581 21.3908L59.5747 15.9995L59.5703 23.6591H60.6989L60.6896 18.534L66.7632 23.7988V16.1345H65.6712L65.6581 21.3908Z" fill="white"/>
<path d="M53.2176 17.9105L54.5275 20.2039H51.8811L53.2176 17.9105ZM48.7383 23.6592H49.9859L51.367 21.2508H55.0456L56.4434 23.6592H57.6505L53.2212 16.059L48.7383 23.6592Z" fill="white"/>
<path d="M42.3355 21.8891L38.7078 16.0072L37.1787 23.6612H38.2459L39.1752 18.581L42.3355 23.7822L45.4956 18.581L46.4251 23.6612H47.492L45.963 16.0072L42.3355 21.8891Z" fill="white"/>
<path d="M35.6399 16.1344H33.9761L30.4934 18.8289V16.1344H29.4248V23.6592H30.4934V20.3175L34.3139 23.6592H35.9553L31.2273 19.5221L35.6399 16.1344Z" fill="white"/>
<path d="M12.3965 23.6592H17.6497V22.5725H13.434V20.2648H17.5698V19.1741H13.434V17.2261H17.687V16.1344H12.3965V23.6592Z" fill="white"/>
<path d="M20.9297 23.6592H26.1861V22.5725H21.9709V20.2648H26.1063V19.1741H21.9709V17.2261H26.223V16.1344H20.9297V23.6592Z" fill="white"/>
<path d="M5.03815 20.2007H6.85063C6.88122 20.2007 6.91124 20.199 6.94143 20.1973L6.97599 20.1964C7.87443 20.1964 8.6054 20.7375 8.6054 21.4028C8.6054 22.0561 7.85927 22.6081 6.97599 22.6081H5.03708L5.03815 20.2007ZM6.97985 19.1444L6.96033 19.1416L6.95207 19.1464C6.94251 19.1473 6.93294 19.1482 6.92338 19.1492C6.89938 19.1516 6.87538 19.1542 6.85063 19.1542H5.03757V17.184H6.85063C7.58194 17.184 8.19969 17.6347 8.19969 18.1684C8.19969 18.6672 7.66457 19.0948 6.97985 19.1444ZM8.5674 19.5864C9.00528 19.2074 9.25433 18.6957 9.25433 18.1684C9.25433 17.675 9.04089 17.1982 8.65323 16.8259C8.19563 16.3864 7.53972 16.1345 6.85344 16.1345C6.85245 16.1345 6.85154 16.1345 6.85063 16.1345H4V23.6592H6.97599C8.4549 23.6592 9.65807 22.6469 9.65807 21.4028C9.65807 20.6849 9.25234 20.0126 8.5674 19.5864Z" fill="white"/>
</svg>
