<svg width="98" height="40" viewBox="0 0 98 40" fill="none" xmlns="http://www.w3.org/2000/svg">
<path d="M28.5058 11.3298H31.0463V27.7078H28.5058V11.3298ZM23.6507 11.3298L27.0568 27.7078H24.4411L23.933 24.9528H20.1505L19.6612 27.7078H17.1019L20.5268 11.3298H23.6507ZM23.4813 22.6158L22.0135 14.7498H21.9759L20.5645 22.6158H23.4813ZM13.2253 18.3788H9.91327V11.3298H7.3916V27.7078H9.91327V20.7348H13.2253V27.7078H15.7658V11.3298H13.2253V18.3788ZM88.0472 11.3298L85.9396 18.3028L83.8319 11.3298H81.0844L84.6223 21.5898V27.6888H87.144V21.6848L90.7195 11.3298H88.0472ZM69.003 12.2038C69.8122 13.0018 70.2262 14.0658 70.2262 15.4338V23.5468C70.2262 24.9338 69.8122 25.9978 69.003 26.7958C68.1938 27.5938 67.1588 27.9928 65.8792 27.9928C64.5995 27.9928 63.5457 27.5938 62.7365 26.7958C61.9273 25.9978 61.5133 24.9338 61.5133 23.5468V15.4338C61.5133 14.0848 61.9273 13.0018 62.7365 12.2038C63.5645 11.4058 64.6183 11.0068 65.8792 11.0068C67.14 11.0258 68.175 11.4248 69.003 12.2038ZM67.6669 15.4908C67.6669 14.1038 66.9518 13.3438 65.8604 13.3438C64.7689 13.3438 64.035 14.1228 64.035 15.4908V23.5088C64.035 24.9148 64.7689 25.6748 65.8604 25.6748C66.9518 25.6748 67.6669 24.8958 67.6669 23.5088V15.4908ZM52.217 13.6668H55.1339V27.7078H57.6744V13.6668H60.5912V11.3298H52.1982V13.6668H52.217ZM47.1361 13.2868C48.3216 13.2868 48.9238 14.1418 48.9803 15.8708H51.3514C51.3137 12.5648 49.7142 11.0068 47.1925 11.0068C44.6897 11.0068 43.0148 12.4698 43.0148 14.7118V15.1488C43.0148 16.3648 43.3724 17.4288 44.0875 18.3028C44.8402 19.1388 45.2919 19.5378 46.2892 20.2978C46.7597 20.6778 47.0796 20.9628 47.2678 21.1148C47.456 21.2858 47.6818 21.5138 47.9829 21.8368C48.6039 22.5018 48.7921 23.1098 48.7921 23.8888V24.0218C48.7921 25.0858 48.1334 25.7318 46.9479 25.7318C45.8752 25.7318 45.1978 24.9528 45.1413 22.6918H42.7137C42.7514 26.2448 44.1439 28.0308 46.9479 28.0308C49.5824 28.0308 51.3137 26.5298 51.3137 24.0598V23.5848C51.3137 22.2738 51.0126 21.2288 50.2034 20.3168C49.8083 19.8798 49.4507 19.5188 49.1873 19.2908C48.905 19.0248 48.4722 18.7018 47.8888 18.2838C47.3619 17.8848 46.9667 17.5618 46.6844 17.2958C46.1199 16.8018 45.48 15.8898 45.48 14.9778V14.8828C45.48 13.8758 46.1763 13.2868 47.1361 13.2868ZM39.6275 20.7728L42.0739 27.6888H39.4017L37.3128 21.7418C37.0682 21.7798 36.8048 21.7988 36.5413 21.7988H35.7697V27.6698H33.2481V11.3108H36.5413C39.4017 11.3108 41.7352 13.6668 41.7352 16.5548C41.7352 18.2838 40.9072 19.8228 39.6275 20.7728ZM39.2323 16.5548C39.2323 15.0538 38.028 13.8378 36.5413 13.8378H35.7697V19.2718H36.5413C38.028 19.2718 39.2323 18.0558 39.2323 16.5548ZM78.6569 20.7728L81.1033 27.6888H78.431L76.3422 21.7418C76.0976 21.7798 75.8341 21.7988 75.5706 21.7988H74.7991V27.6698H72.2774V11.3108H75.5706C78.431 11.3108 80.7645 13.6668 80.7645 16.5548C80.7645 18.2838 79.9365 19.8228 78.6569 20.7728ZM78.2429 16.5548C78.2429 15.0538 77.0385 13.8378 75.5518 13.8378H74.7803V19.2718H75.5518C77.0385 19.2718 78.2429 18.0558 78.2429 16.5548Z" fill="white"/>
</svg>
