<svg width="98" height="40" viewBox="0 0 98 40" fill="none" xmlns="http://www.w3.org/2000/svg">
<path fill-rule="evenodd" clip-rule="evenodd" d="M64.1381 29.5483C63.6021 28.7156 63.57 27.1649 65.0171 25.1663L65.7943 24.0177L66.7537 25.7406C67.7613 27.6014 67.9167 28.7902 67.4772 29.5426V29.5943H74V29.5483C73.1424 28.7443 72.6279 28.1068 71.2022 25.4707L69.1816 21.841L70.1946 20.3593C71.1834 18.7884 72.3722 17.3734 73.7267 16.1553V16.0978H70.2428V16.1553C70.8163 16.9306 70.8163 18.5387 69.4174 20.5373L68.8815 21.3126L68.1097 19.9515C67.0699 18.0965 66.9949 16.8215 67.4076 16.1553V16.0978H60.8633V16.1553C61.7155 16.9593 62.2354 17.6255 63.6558 20.2329L65.4941 23.5295L64.2239 25.3616C63.2247 26.9345 62.0188 28.3446 60.6436 29.5483V29.6H64.1381V29.5483ZM53.7563 29.6H59.1697V29.5483C58.6968 27.9925 58.4863 26.3589 58.5479 24.7241V15.535L53.0864 17.1431V17.2522C54.019 18.4009 54.4049 19.6127 54.4049 21.6342V24.7241C54.4347 26.3592 54.2157 27.9887 53.7563 29.5483V29.6ZM58.3657 11.4402C58.3545 10.8018 58.1091 10.1939 57.6829 9.74793C57.2566 9.3019 56.6836 9.05361 56.0878 9.05674C55.5133 9.08688 54.9716 9.35266 54.5749 9.79902C54.1782 10.2454 53.957 10.8381 53.957 11.4545C53.957 12.0709 54.1782 12.6636 54.5749 13.11C54.9716 13.5564 55.5133 13.8221 56.0878 13.8523C56.6878 13.8538 57.2639 13.6011 57.6906 13.1492C58.1174 12.6973 58.3601 12.083 58.3657 11.4402ZM43.2513 29.5483C42.7829 27.9916 42.576 26.3582 42.6403 24.7241V19.0958C42.8919 18.6914 43.2297 18.3571 43.6258 18.1204C44.0219 17.8837 44.4649 17.7515 44.9182 17.7346C46.1616 17.7346 46.703 18.6248 46.703 19.785V24.7528C46.7698 26.3794 46.5553 28.0052 46.0705 29.5483V29.6H51.4785V29.5483C50.9893 27.9867 50.7784 26.3405 50.8567 24.6954V19.5265C50.8567 17.1718 49.2488 15.6729 46.9763 15.6729C46.1023 15.6749 45.2436 15.9193 44.4838 16.3822C43.724 16.8451 43.0889 17.5109 42.6403 18.3147H42.5384V15.5178L37.1787 17.1259V17.1776C38.1113 18.3262 38.4758 19.538 38.4758 21.5883V24.7241C38.5357 26.3606 38.3178 27.9952 37.8326 29.5483V29.6H43.2406L43.2513 29.5483ZM36.3105 29.6V29.5483C35.4047 28.773 34.992 27.8828 34.2952 26.6365L30.7256 20.1468L31.551 19.2853C32.7409 18.1367 33.8289 16.9306 35.6137 16.1553V16.0978H31.0579V16.1553C31.3809 16.6791 31.5099 17.3131 31.4197 17.9334C31.3295 18.5537 31.0266 19.1156 30.5702 19.5093L27.4616 22.5302V8L22 9.60808V9.66552C22.9326 10.8141 23.297 11.9972 23.297 14.0763V25.2467C23.3569 26.7105 23.1456 28.1725 22.6753 29.5483V29.6H28.2655V29.5483C27.6741 28.2062 27.398 26.7294 27.4616 25.2467V22.5302L31.2402 29.6H36.3105Z" fill="white"/>
</svg>
