<svg width="98" height="40" viewBox="0 0 98 40" fill="none" xmlns="http://www.w3.org/2000/svg">
<g clip-path="url(#clip0_13_926)">
<path d="M75.8679 30.4257V31.9996H86.9996V24.9013H85.3777V30.4257H75.8679ZM75.8679 7V8.57392H85.3777V14.0987H86.9996V7H75.8679ZM70.1273 19.176V15.5187H72.6718C73.9123 15.5187 74.3576 15.9198 74.3576 17.0157V17.6637C74.3576 18.7902 73.928 19.176 72.6718 19.176H70.1273ZM74.1663 19.824C75.3271 19.5308 76.1381 18.4813 76.1381 17.2316C76.1381 16.4446 75.8202 15.7346 75.2159 15.1635C74.4526 14.4535 73.4346 14.0987 72.1148 14.0987H68.5369V24.9009H70.1273V20.5957H72.5128C73.7371 20.5957 74.2302 21.0894 74.2302 22.3242V24.9013H75.8521V22.5711C75.8521 20.8735 75.4387 20.2255 74.1663 20.0403V19.824ZM60.7768 20.1788H65.6749V18.7592H60.7768V15.5183H66.1518V14.0987H59.1545V24.9009H66.3904V23.4813H60.7768V20.1788ZM55.4492 20.7499V21.4906C55.4492 23.0492 54.8607 23.5586 53.3819 23.5586H53.0321C51.5529 23.5586 50.8374 23.0955 50.8374 20.9505V18.0492C50.8374 15.8888 51.5849 15.441 53.0636 15.441H53.3815C54.8287 15.441 55.2898 15.9658 55.3056 17.4164H57.0549C56.896 15.2868 55.433 13.9444 53.2384 13.9444C52.173 13.9444 51.2824 14.2686 50.6146 14.8856C49.6127 15.7962 49.0562 17.3395 49.0562 19.4998C49.0562 21.5832 49.5334 23.1265 50.5191 24.083C51.1869 24.7157 52.1095 25.0552 53.0159 25.0552C53.97 25.0552 54.8449 24.6847 55.2898 23.8824H55.5123V24.9009H56.9752V19.3302H52.6656V20.7499H55.4492ZM41.4234 15.5183H43.157C44.7951 15.5183 45.6857 15.9195 45.6857 18.0802V20.9195C45.6857 23.0798 44.7951 23.4813 43.157 23.4813H41.4234V15.5183ZM43.2998 24.9013C46.3373 24.9013 47.4662 22.6637 47.4662 19.5002C47.4662 16.2904 46.2576 14.0991 43.2678 14.0991H39.8327V24.9013H43.2998ZM32.1523 20.1788H37.0503V18.7592H32.1523V15.5183H37.5272V14.0987H30.5299V24.9009H37.7659V23.4813H32.1523V20.1788ZM22.7698 14.0987H21.1479V24.9009H28.4631V23.4813H22.7698V14.0987ZM10 24.9013V32H21.1317V30.4257H11.6219V24.9013H10ZM10 7V14.0987H11.6219V8.57392H21.1317V7H10Z" fill="white"/>
</g>
<defs>
<clipPath id="clip0_13_926">
<rect width="77" height="25" fill="white" transform="translate(10 7)"/>
</clipPath>
</defs>
</svg>
