<svg width="98" height="40" viewBox="0 0 98 40" fill="none" xmlns="http://www.w3.org/2000/svg">
<g clip-path="url(#clip0_13_928)">
<path d="M9.30241 10.001C4.16538 10.001 0 14.2539 0 19.5009C0 24.7474 4.16538 29 9.30241 29C14.4411 29 18.6065 24.7474 18.6065 19.5009C18.6065 14.2539 14.4411 10.001 9.30241 10.001Z" fill="#D21C2D"/>
<path d="M15.7999 23.7177C15.4416 23.901 14.7656 24.2005 14.1791 24.2005C13.8861 24.2005 13.6107 24.1109 13.3382 23.9252C11.833 22.902 12.3475 21.675 13.3745 19.7758C13.8091 18.9701 14.2583 18.1405 14.4582 17.2836C14.6725 16.3616 14.8675 15.0175 14.0846 14.0018C13.7169 13.525 13.1564 13.1569 12.4217 12.9083C11.6555 12.6496 10.6715 12.5097 9.49334 12.4938L9.41186 12.4911L9.11247 12.4938C7.93501 12.5097 6.94942 12.6496 6.18494 12.9079C5.44939 13.1569 4.88891 13.5247 4.52114 14.0014C3.73848 15.0182 3.93324 16.3616 4.14909 17.2836C4.34748 18.1405 4.79741 18.9717 5.23131 19.7754C6.25826 21.675 6.77284 22.902 5.26688 23.9252C4.99505 24.1109 4.72101 24.2005 4.42741 24.2005C3.84159 24.2005 3.16573 23.901 2.80664 23.7177L2.8939 23.875C3.63812 25.0157 4.5946 25.6221 5.65727 25.6221C6.12304 25.6221 6.61513 25.5062 7.11884 25.2784C7.65229 25.0372 8.12109 24.5953 8.43939 24.0338C8.75642 23.4723 8.88211 22.868 8.79199 22.3301C8.68295 21.8482 8.43649 21.1999 8.15306 20.4496C7.41106 18.4907 6.39709 15.8138 7.27294 14.5043C7.64223 13.9517 8.30649 13.6816 9.30215 13.6778C10.2994 13.6816 10.9629 13.9513 11.3322 14.5043C12.2087 15.8138 11.1948 18.4907 10.4534 20.4463C10.1693 21.1977 9.92286 21.8467 9.81382 22.3247C9.72299 22.868 9.84869 23.4723 10.1671 24.0338C10.4854 24.5953 10.9542 25.0372 11.4876 25.2788C11.9915 25.5062 12.4834 25.6221 12.9494 25.6221C14.0119 25.6221 14.9684 25.0157 15.7156 23.8699L15.7999 23.7177Z" fill="white"/>
<path d="M26.7178 25.5166H24.7676V12.5712H26.7178V25.5166Z" fill="white"/>
<path d="M36.3338 25.5168H34.3833V24.6803C33.9153 25.2378 33.0766 25.7158 32.0622 25.7158C30.0923 25.7158 29.0195 24.3815 29.0195 22.4297V16.6739H30.9702V22.091C30.9702 23.1866 31.4773 23.9035 32.5889 23.9035C33.4275 23.9035 34.1688 23.3657 34.3833 22.4895V16.6739H36.3338V25.5168Z" fill="white"/>
<path d="M40.7033 25.5166H38.7529V12.5712H40.7033V25.5166Z" fill="white"/>
<path d="M50.32 25.5168H48.3697V24.6803C47.9017 25.2378 47.0629 25.7158 46.0484 25.7158C44.0786 25.7158 43.0059 24.3815 43.0059 22.4297V16.6739H44.9566V22.091C44.9566 23.1866 45.4637 23.9035 46.5753 23.9035C47.4137 23.9035 48.1551 23.3657 48.3697 22.4895V16.6739H50.32V25.5168Z" fill="white"/>
<path d="M54.6896 25.5166H52.7393V12.5712H54.6896V25.5166Z" fill="white"/>
<path d="M58.475 20.0995H62.3955C62.3761 19.024 61.7713 18.1478 60.5814 18.1478C59.509 18.1478 58.709 18.825 58.475 20.0995ZM64.2485 22.7684C63.9556 24.521 62.6881 25.7158 60.6011 25.7158C58.1825 25.7158 56.5049 23.8439 56.5049 21.1153C56.5049 18.4665 58.2019 16.4747 60.562 16.4747C63 16.4747 64.3265 18.2475 64.3265 20.8365V21.5536H58.4164C58.475 23.1068 59.3526 24.043 60.6011 24.043C61.5373 24.043 62.2392 23.6248 62.4538 22.7684H64.2485Z" fill="white"/>
<path d="M75.0931 16.4745C76.8677 16.4745 77.9017 17.7492 77.9017 19.7607V25.5166H75.9513V20.0793C75.9513 18.9841 75.483 18.267 74.5274 18.267C73.8252 18.267 73.1618 18.7052 72.9868 19.5816V25.5166H71.036V20.0793C71.036 18.9841 70.5678 18.267 69.6121 18.267C68.9099 18.267 68.2469 18.7052 68.0711 19.5816V25.5166H66.1211V16.6737H68.0711V17.4108C68.4808 16.853 69.261 16.4745 70.2364 16.4745C71.2118 16.4745 72.0696 16.9727 72.5185 17.6497C73.123 16.9328 73.9229 16.4745 75.0931 16.4745Z" fill="white"/>
<path d="M83.7153 18.1877C82.3108 18.1877 81.5503 19.4225 81.5503 21.0953C81.5503 22.7684 82.3108 24.003 83.7153 24.003C85.1194 24.003 85.8805 22.7684 85.8805 21.0953C85.8805 19.4225 85.1194 18.1877 83.7153 18.1877ZM83.7153 25.7158C81.2772 25.7158 79.5996 23.804 79.5996 21.0953C79.5996 18.3867 81.2772 16.4747 83.7153 16.4747C86.1533 16.4747 87.8306 18.3867 87.8306 21.0953C87.8306 23.804 86.1533 25.7158 83.7153 25.7158Z" fill="white"/>
<path d="M89.6455 16.6737H91.5959V17.5103C92.0638 16.9525 92.9224 16.4745 93.9365 16.4745C95.9063 16.4745 96.9985 17.809 96.9985 19.7607V25.5166H95.0481V20.0993C95.0481 19.0041 94.5216 18.287 93.4097 18.287C92.5713 18.287 91.8104 18.8248 91.5959 19.7013V25.5166H89.6455V16.6737Z" fill="white"/>
</g>
<defs>
<clipPath id="clip0_13_928">
<rect width="97" height="19" fill="white" transform="translate(0 10)"/>
</clipPath>
</defs>
</svg>
