<svg width="98" height="40" viewBox="0 0 98 40" fill="none" xmlns="http://www.w3.org/2000/svg">
<g clip-path="url(#clip0_13_927)">
<path d="M2.24964 20.9024L4.30223 23.5291H3.10352L1.19871 21.0087H1.01809V23.5291H0V17.3951H1.19871C1.87196 17.3343 2.54521 17.5014 3.10352 17.8506C3.53046 18.1846 3.74393 18.6856 3.71108 19.2019C3.71108 19.6118 3.57972 20.0066 3.30057 20.3103C3.05426 20.6291 2.67658 20.8417 2.24964 20.9024ZM1.00166 20.204H1.3465C2.2989 20.204 2.7751 19.8699 2.7751 19.2019C2.7751 18.5338 2.28248 18.2605 1.3465 18.2605H0.985244L1.00166 20.204Z" fill="white"/>
<path d="M8.47334 17.3799V23.5139H7.47168V17.3799H8.47334Z" fill="white"/>
<path d="M15.6168 18.2599H13.3015V19.763H15.5347V20.6285H13.3015V23.5436H12.2998V17.4248H15.6168V18.2599Z" fill="white"/>
<path d="M19.9185 17.3789V22.6475H21.8561V23.5281H18.9004V17.3941L19.9185 17.3789Z" fill="white"/>
<path d="M28.6706 18.2599H26.0105V19.763H28.5885V20.6285H26.0105V22.6782H28.6706V23.5436H25.0088V17.4248H28.6706V18.2599Z" fill="white"/>
<path d="M38.1275 21.0383V23.5284H37.1094V17.3944H38.2424C38.6693 17.3792 39.0963 17.4095 39.5068 17.5006C39.786 17.5766 40.0487 17.7132 40.2622 17.9106C40.6563 18.2446 40.8697 18.7153 40.8697 19.2163C40.9026 19.7174 40.6727 20.2184 40.2622 20.5525C39.8024 20.9017 39.2112 21.0687 38.6037 21.0383H38.1275ZM38.1275 20.1729H38.5051C39.4247 20.1729 39.8845 19.8389 39.8845 19.186C39.8845 18.5331 39.4083 18.2294 38.4559 18.2294H38.1275V20.1729Z" fill="white"/>
<path d="M47.4387 22.0408H44.5979L43.8426 23.5288H42.7588L46.0429 17L49.2121 23.5288H48.1119L47.4387 22.0408ZM47.0282 21.1602L46.0429 19.0649L45.0084 21.1602H47.0282Z" fill="white"/>
<path d="M53.3015 21.0393V23.5294H52.2998V17.3953H53.4328C53.8598 17.3801 54.2867 17.4105 54.6972 17.5016C54.9928 17.5775 55.2555 17.7142 55.4526 17.9116C55.8467 18.2456 56.0602 18.7163 56.0602 19.2173C56.093 19.7184 55.8631 20.2194 55.4526 20.5534C54.9928 20.9027 54.4017 21.0697 53.8105 21.0393H53.3015ZM53.3015 20.1739H53.6791C54.5987 20.1739 55.0585 19.8398 55.0585 19.187C55.0585 18.5341 54.5823 18.2304 53.6299 18.2304H53.3015V20.1739Z" fill="white"/>
<path d="M62.8587 18.2599H60.1985V19.763H62.793V20.6285H60.1985V22.6782H62.8587V23.5436H59.2461V17.4248H62.8587V18.2599Z" fill="white"/>
<path d="M68.6885 20.9024L70.7411 23.5291H69.5424L67.6376 21.0087H67.4569V23.5291H66.4717V17.3951H67.6704C68.3436 17.3343 69.0169 17.5014 69.5752 17.8506C69.9857 18.1998 70.2156 18.6856 70.1828 19.2019C70.1992 19.6118 70.0514 20.0066 69.7722 20.3103C69.5095 20.6291 69.1154 20.8417 68.6885 20.9024ZM67.4405 20.204H67.7525C68.7049 20.204 69.1811 19.8699 69.1811 19.2019C69.1811 18.5338 68.7213 18.2605 67.8018 18.2605H67.4405V20.204Z" fill="white"/>
<path d="M83.7778 17.7135V18.8219C83.2852 18.3967 82.6448 18.169 81.9715 18.1538C81.3147 18.1386 80.6907 18.3967 80.2474 18.837C79.7712 19.2774 79.5248 19.8847 79.5413 20.5072C79.5248 21.1145 79.7876 21.7067 80.2474 22.147C80.7071 22.5873 81.3311 22.8151 81.9715 22.8151C82.2835 22.8151 82.5791 22.7695 82.8747 22.648C83.0225 22.5873 83.1702 22.5266 83.3016 22.4355C83.4494 22.3444 83.5972 22.2381 83.7614 22.1166V23.225C83.2195 23.5135 82.5955 23.6805 81.9551 23.6805C81.052 23.6957 80.1817 23.3617 79.5413 22.7543C78.8844 22.1774 78.5232 21.3575 78.5396 20.5224C78.5396 19.748 78.8352 19.0041 79.3771 18.4271C80.4608 17.2428 82.3164 16.9543 83.7778 17.7439V17.7135Z" fill="white"/>
<path d="M86.8329 20.4311C86.8165 19.5808 87.1941 18.7761 87.851 18.1991C88.5078 17.5918 89.3945 17.2578 90.3141 17.273C92.2189 17.2881 93.7624 18.7154 93.7624 20.4614C93.7789 21.3117 93.4012 22.1164 92.7443 22.6934C91.4307 23.8928 89.3288 23.9384 87.9495 22.7997C87.2106 22.2075 86.8 21.3269 86.8329 20.4311ZM87.8346 20.4311C87.8181 21.0536 88.0809 21.6609 88.5735 22.1012C89.0168 22.5264 89.6244 22.7541 90.2648 22.7541C90.9217 22.7693 91.5621 22.5264 92.0383 22.086C92.9907 21.1599 92.9907 19.7175 92.0383 18.7913C91.0694 17.9107 89.5095 17.9107 88.5406 18.7913C88.0809 19.2316 87.8181 19.8237 87.8346 20.4311Z" fill="white"/>
<path d="M96.7852 23.1038C96.7852 22.8001 97.0479 22.542 97.3927 22.542C97.7211 22.542 98.0003 22.7849 98.0003 23.1038C98.0003 23.2556 97.9346 23.4074 97.8197 23.5137C97.7047 23.62 97.5569 23.6807 97.3927 23.6656C97.0479 23.6656 96.7852 23.4074 96.7852 23.1038Z" fill="white"/>
<path d="M53.2855 21.07V23.636H52.251V17.335H53.4168C53.9916 17.335 54.4185 17.3653 54.7141 17.4412C55.0097 17.5172 55.2724 17.6538 55.4859 17.8512C55.88 18.2004 56.077 18.6559 56.077 19.1873C56.077 19.7643 55.8635 20.2198 55.453 20.5538C55.0425 20.8878 54.4678 21.0549 53.7617 21.0549H53.2855V21.07ZM53.2855 20.1894H53.6632C54.6156 20.1894 55.0753 19.8554 55.0753 19.1873C55.0753 18.5344 54.5827 18.2156 53.6139 18.2156H53.2691V20.1894H53.2855Z" fill="white"/>
</g>
<defs>
<clipPath id="clip0_13_927">
<rect width="98" height="40" fill="white"/>
</clipPath>
</defs>
</svg>
