<svg width="98" height="40" viewBox="0 0 98 40" fill="none" xmlns="http://www.w3.org/2000/svg">
<g clip-path="url(#clip0_149_1898)">
<path d="M13.1444 12.5714H10.9918C10.9079 12.5714 10.8373 12.6367 10.8373 12.7216V20.4343C10.8373 21.92 9.89032 22.5894 8.64776 22.5894C7.40523 22.5894 6.44813 21.871 6.44813 20.3853V12.7216C6.44813 12.64 6.38097 12.5714 6.29366 12.5714H4.15448C4.06716 12.5714 4 12.64 4 12.7216V20.5355C4 22.8604 5.85373 24.6531 8.64776 24.6531C11.4418 24.6531 13.2955 22.8604 13.2955 20.5322V12.7216C13.2955 12.64 13.2283 12.5714 13.141 12.5714H13.1444ZM55.6929 12.4996H53.866C53.7955 12.4996 53.7351 12.5388 53.7048 12.5975C53.4194 13.1984 51.2702 17.5151 51.0082 18.0441C50.9981 18.0669 50.9679 18.0669 50.9545 18.0441C50.6925 17.5151 48.5668 13.2016 48.2847 12.5975C48.2705 12.5678 48.2477 12.5426 48.2191 12.5252C48.1905 12.5078 48.1573 12.4989 48.1235 12.4996H46.2798C46.1825 12.4996 46.1019 12.578 46.1019 12.6727V24.209C46.1019 24.3037 46.1825 24.3788 46.2798 24.3788H48.1067C48.2041 24.3788 48.2813 24.3037 48.2813 24.209V17.1298C48.2813 17.1069 48.315 17.0971 48.325 17.12L50.3836 21.2147C50.4138 21.2735 50.4742 21.3126 50.5414 21.3126H51.475C51.5422 21.3126 51.606 21.2735 51.6329 21.2147L53.6041 17.2473C53.6142 17.2245 53.6477 17.2343 53.6477 17.2571V24.2025C53.6477 24.2971 53.725 24.3755 53.8224 24.3722H55.6761C55.7735 24.3722 55.8508 24.2939 55.8541 24.1992L55.8642 12.6661C55.8642 12.5714 55.7869 12.4931 55.6862 12.4931L55.6929 12.4996ZM19.4344 15.6669C18.3362 15.6669 17.6008 16.1078 17.1877 16.7575H17.1709V16.0359C17.1709 15.9314 17.1004 15.8596 16.9896 15.8596H15.334C15.2265 15.8596 15.1526 15.9314 15.1526 16.0359V24.1665C15.1526 24.271 15.2231 24.3429 15.334 24.3429H16.9896C17.097 24.3429 17.1709 24.271 17.1709 24.1665V19.5722C17.1709 18.2171 17.6746 17.4269 18.8063 17.4269C19.2731 17.4269 19.6862 17.5837 20.0825 17.8318C20.1731 17.9037 20.2638 17.8841 20.3344 17.7959L21.2881 16.6171C21.3586 16.529 21.3418 16.4604 21.2511 16.369C20.8011 15.9282 20.1194 15.6637 19.4344 15.6637V15.6669ZM38.4149 19.0726C38.4149 18.7853 38.3847 18.4979 38.3377 18.2139C38.0925 16.8163 37.216 15.9935 35.7048 15.7486C35.1742 15.6604 34.6437 15.6539 34.1097 15.6931C32.8369 15.7812 31.544 16.7216 31.1545 17.8351C31.1041 17.9821 31.1242 18.0506 31.2955 18.0931C31.7523 18.2041 32.3567 18.3575 32.7496 18.4686C32.9746 18.5306 33.0183 18.5274 33.1156 18.3282C33.5354 17.4824 34.2508 17.2245 35.1138 17.4106C35.9164 17.5837 36.2656 18.0441 36.2455 18.8637C36.2422 19.0563 36.2455 19.0922 36.2455 19.0922C35.6914 19.0922 34.8653 19.0792 34.3112 19.0988C33.5354 19.1282 32.7967 19.3012 32.1217 19.6669C30.2343 20.6857 30.4862 22.9617 31.5508 23.8171C32.3231 24.4343 33.2265 24.5421 34.1903 24.4245C35.0668 24.3167 35.7821 23.9217 36.4033 23.2588C36.4806 23.6017 36.5511 23.8825 36.6048 24.1633C36.6317 24.3004 36.6955 24.3396 36.8433 24.3396H38.116C38.3612 24.3396 38.4149 24.2743 38.4149 24.0621C38.4048 22.4 38.4116 20.7379 38.4116 19.0726H38.4149ZM36.2086 20.8359C36.2086 21.9331 35.2213 22.7559 34.0056 22.7559C33.2869 22.7559 32.8168 22.4163 32.8168 21.8743C32.8168 21.2767 33.1123 20.9567 33.6899 20.7674C34.244 20.5845 35.8023 20.6694 36.2119 20.6694V20.8359H36.2086ZM77.1314 15.6898C74.4688 15.6898 72.6314 17.5935 72.6314 20.1012C72.6314 22.609 74.3613 24.5126 77.1314 24.5126C79.9021 24.5126 81.6554 22.5078 81.6554 20.1012C81.6554 17.6947 79.9092 15.6898 77.1314 15.6898ZM77.1314 22.7233C75.654 22.7233 74.8347 21.5543 74.8347 20.111C74.8347 18.6678 75.6003 17.4988 77.1314 17.4988C78.6632 17.4988 79.4253 18.6678 79.4253 20.111C79.4253 21.5543 78.6427 22.7233 77.1314 22.7233ZM87.7772 15.6865C86.679 15.6865 85.9438 16.1273 85.5307 16.7771H85.5137V16.0555C85.5137 15.951 85.4436 15.8792 85.3325 15.8792H83.6769C83.5694 15.8792 83.4957 15.951 83.4957 16.0555V24.1861C83.4957 24.2906 83.5658 24.3625 83.6769 24.3625H85.3325C85.4401 24.3625 85.5137 24.2906 85.5137 24.1861V19.5918C85.5137 18.2367 86.0175 17.4465 87.1495 17.4465C87.6158 17.4465 88.029 17.6033 88.4253 17.8514C88.5158 17.9233 88.6064 17.9037 88.6771 17.8155L89.6309 16.6367C89.7016 16.5486 89.6847 16.48 89.5941 16.3886C89.1441 15.9478 88.4621 15.6833 87.7772 15.6833V15.6865ZM70.5398 15.8106H66.6774C66.4629 15.8106 66.436 15.8857 66.436 16.0555V17.3649C66.436 17.5641 66.4962 17.6033 66.7078 17.6033H68.4979C68.4809 18.289 68.4908 19.2359 68.4908 19.9217C68.4908 21.231 68.5043 22.5404 68.4774 23.8498C68.464 24.5388 68.239 25.169 67.5809 25.5935C67.2653 25.7992 66.9194 25.9494 66.5465 26.0375C66.3922 26.0735 66.3449 26.1322 66.3986 26.2922C66.5599 26.769 66.7014 27.2555 66.8323 27.7388C66.879 27.9151 66.9532 27.9282 67.1274 27.8825C67.8363 27.7029 68.4774 27.3992 69.0718 27.0041C70.2236 26.2433 70.7812 25.2082 70.7847 23.9086V16.049C70.7847 15.8792 70.7543 15.8041 70.5427 15.8041L70.5398 15.8106ZM69.5218 12C68.686 12 68.0514 12.5845 68.0514 13.3551C68.0514 14.1257 68.686 14.7069 69.5253 14.7069C70.3581 14.7069 71.0033 14.1159 71.0033 13.3518C71.0033 12.591 70.3551 12 69.5218 12ZM65.1801 19.089C65.1801 18.8017 65.1497 18.5143 65.1024 18.2302C64.8575 16.8327 63.9809 16.0098 62.4696 15.7649C61.9392 15.6767 61.4086 15.6702 60.8746 15.7094C59.6019 15.7975 58.309 16.738 57.9194 17.8514C57.869 17.9983 57.8892 18.0669 58.0604 18.1094C58.5172 18.2204 59.1217 18.3739 59.5146 18.4849C59.7396 18.5469 59.7832 18.5437 59.8806 18.3445C60.3004 17.4988 61.0157 17.2408 61.8787 17.4269C62.6812 17.6 63.0307 18.0604 63.0102 18.88C63.0073 19.0726 63.0102 19.1086 63.0102 19.1086C62.4562 19.1086 61.6302 19.0955 61.0761 19.1151C60.3004 19.1445 59.5616 19.3175 58.8866 19.6833C56.9992 20.7021 57.2511 22.9779 58.3157 23.8335C59.0881 24.4506 59.9914 24.5583 60.9552 24.4408C61.8317 24.3331 62.5468 23.9379 63.1686 23.2751C63.2457 23.6179 63.3158 23.8988 63.3696 24.1796C63.3965 24.3167 63.4602 24.3559 63.6081 24.3559H64.8809C65.1264 24.3559 65.1801 24.2906 65.1801 24.0783C65.1696 22.4163 65.1766 20.7543 65.1766 19.089H65.1801ZM62.9734 20.8522C62.9734 21.9494 61.9862 22.7722 60.7705 22.7722C60.0519 22.7722 59.5817 22.4326 59.5817 21.8906C59.5817 21.2931 59.8773 20.9731 60.4548 20.7837C61.009 20.6008 62.5672 20.6857 62.9769 20.6857V20.8522H62.9734ZM26.8023 19.3274C26.2079 19.1837 25.5967 19.1021 25.019 18.9061C23.9175 18.5371 24.2198 17.4759 25.4086 17.4759C26.2683 17.4759 26.7922 17.649 27.3832 18.4457C27.4873 18.5861 27.541 18.6188 27.6989 18.511C28.1129 18.2294 28.5351 17.9594 28.9649 17.7012C29.1261 17.6033 29.1227 17.5249 29.0254 17.3878C28.7332 16.9829 28.4075 16.6106 27.9675 16.3265C26.9836 15.6898 25.8854 15.582 24.7336 15.7388C23.7597 15.8727 22.2082 16.6727 22.2082 18.0506C22.2082 18.9159 22.5608 19.6735 23.3668 20.16C24.4851 20.8294 26.05 20.911 26.9265 21.3486C27.447 21.6065 27.3295 22.4621 26.4496 22.6514C25.4119 22.8767 24.1694 22.5796 23.7329 21.4237C23.6758 21.2767 23.6086 21.2702 23.4675 21.3192C22.9168 21.5021 22.366 21.6783 21.8119 21.8482C21.6541 21.8971 21.6071 21.9592 21.6742 22.1061C21.9463 22.6939 22.2888 23.2294 22.8362 23.6441C22.8362 23.6441 23.7631 24.4506 25.7242 24.4506C27.5108 24.4506 29.4317 23.6604 29.4317 21.6882C29.4317 19.9379 27.2287 19.4253 26.7989 19.3208L26.8023 19.3274ZM92.2842 12.5812C91.2731 12.5812 90.5479 13.2441 90.5479 14.1584C90.5479 15.0727 91.2801 15.7453 92.2842 15.7453C93.2882 15.7453 94.0199 15.0759 94.0199 14.1584C94.0199 13.2408 93.2946 12.5812 92.2842 12.5812ZM92.2842 15.311C91.5285 15.311 91.0282 14.8278 91.0282 14.1616C91.0282 13.4955 91.5215 13.0188 92.2842 13.0188C93.0462 13.0188 93.5401 13.4922 93.5401 14.1616C93.5401 14.831 93.0398 15.311 92.2842 15.311Z" fill="white"/>
<path d="M92.9794 13.9235C92.9794 13.6525 92.7848 13.5088 92.523 13.5088H91.6768V14.8476H91.9988V14.3382H92.402L92.6469 14.8476H92.9999L92.7211 14.2957C92.8853 14.237 92.9759 14.1063 92.9759 13.9235H92.9794ZM92.4961 14.0541H92.0023V13.7994H92.4961C92.5867 13.7994 92.6539 13.8386 92.6539 13.9235C92.6539 14.0182 92.5867 14.0541 92.4961 14.0541Z" fill="white"/>
</g>
<defs>
<clipPath id="clip0_149_1898">
<rect width="90" height="16" fill="white" transform="translate(4 12)"/>
</clipPath>
</defs>
</svg>
